<?xml version="1.0" encoding="UTF-8"?><svg id="Layer_2" xmlns="http://www.w3.org/2000/svg" width="75.2mm" height="83.58mm" viewBox="0 0 213.17 236.92"><defs><style>.cls-1{fill:#00b261;stroke-width:5px;}.cls-1,.cls-2{stroke:#fff;}.cls-1,.cls-2,.cls-3{stroke-miterlimit:10;}.cls-2{fill:none;stroke-width:6px;}.cls-3{fill:#aaa8a8;stroke:#5d5d5c;}.cls-4{fill:#808285;}.cls-4,.cls-5{stroke-width:0px;}.cls-5{fill:#fff;}</style></defs><g id="Layer_1-2"><path class="cls-4" d="m125.59,231.32c-3.57,1.45-7.14,2.9-10.72,4.35-4.25,1.16-10.1,2.01-16.39.22-3.34-.95-5.41-2.25-12.21-6.25-4.92-2.9-9.95-5.62-14.82-8.6-13.76-8.41-35.56-21.73-50.04-28.26-1.55-.7-5.64-2.5-9.85-6.31-1.08-.98-4.35-4.06-7.22-9.07-2.56-4.47-3.76-8.67-4.35-11.72.18-31.17.36-62.33.54-93.5.5-3.32,2.03-10.38,7.49-17.29,4.83-6.11,10.43-9.17,13.43-10.56,11.53-6.34,23.16-12.83,34.88-19.5,13.21-7.51,26.18-15.03,38.92-22.54,10.67-3.71,17.51-2.1,20.93-.81,1.83.69,3.59,1.63,7.11,3.52,5.39,2.9,9.67,5.58,12.56,7.48,10.88,6.04,21.93,12.36,33.13,18.95,11.28,6.64,22.24,13.29,32.88,19.91,1.45,1.08,3.46,2.79,5.35,5.28,6.08,8.06,5.72,17.61,5.61,21.78-.34,13.2.07,39.84.13,75.26.37,3.57.55,9.97-1.96,17.36-2.8,8.2-7.53,13.5-10.16,16.07-14.66,8.52-29.36,17.12-44.1,25.8-10.43,6.14-20.81,12.28-31.15,18.42Z"/><path class="cls-1" d="m104.33,218.24c-1.03,0-1.97-.12-2.88-.38-.91-.26-2.1-.94-6.83-3.72l-1.41-.83c-2.07-1.22-4.16-2.41-6.25-3.6-2.91-1.66-5.66-3.22-8.32-4.85-14.52-8.88-36.46-22.29-51.92-29.26l-.1-.05c-1.11-.5-3.18-1.43-5.33-3.37-.66-.6-2.36-2.27-3.87-4.91-.92-1.61-1.62-3.32-2.1-5.12l.52-90.14c.47-2.3,1.52-5.34,3.83-8.26,2.41-3.04,5.25-4.76,7.21-5.66l.55-.25.53-.29c11.7-6.43,23.5-13.03,35.09-19.62,12.5-7.11,25.12-14.41,37.54-21.73,1.98-.58,3.81-.89,5.34-.89,1.02,0,1.88.13,2.56.39.8.3,2.37,1.14,5.08,2.6,3.87,2.08,7.66,4.34,11.26,6.71l.53.35.56.31c10.95,6.08,21.97,12.38,32.77,18.74,10.64,6.26,21.33,12.73,31.79,19.24.57.47,1.07.98,1.48,1.53,2.4,3.18,2.28,8.01,2.2,10.89v.23c-.23,8.57-.14,22.56-.04,40.26.06,10.48.13,22.37.16,35.47v.86s.09.85.09.85c.24,2.38.24,6.06-1.14,10.13-1.2,3.51-3.04,6.19-4.68,8.06-14,8.14-28.15,16.43-42.11,24.64-9.92,5.84-20.04,11.82-30.1,17.8l-8.46,3.44c-1.25.29-2.44.43-3.53.43Z"/><path class="cls-5" d="m150.7,197.21c-33.87-22.96-55.58-61.41-60.2-101.79-.69-5.68-1.02-11.39-1.05-17.09,1.36,19.79,6.73,39.26,15.67,56.95,11.34,22.25,28.86,41.69,50.4,54.34,0,0-4.83,7.59-4.83,7.59h0Z"/><path class="cls-2" d="m102.11,167.42c-10.27,1.03-20.51-1.83-27.82-6.97-.93-.65-4.71-3.13-8.13-7.75-4.8-6.48-7.98-14.15-9.2-22.12-1.81-11.86.7-23.92,3.43-35.61.64-2.73,2.84-11.17,6.05-18.44,10.18-23.05,32.01-36.57,43.33-42.51-.65,4.66-1.14,11-.54,18.46.36,4.45,1.27,14.8,6.03,25.23,8.05,17.64,18.15,15.9,23.53,31.09,4.31,12.16,1.37,23.25.43,26.61-4.61,16.48-16.93,25.11-20.49,27.41"/><path class="cls-2" d="m109.82,150.82c-7.72-.28-17.9-1.87-28.28-7.21-6.89-3.55-11.21-7.38-12.19-8.26-7.04-6.36-10.87-13.27-12.87-17.65"/><path class="cls-2" d="m97.49,123.8c-3.6-.89-8.93-2.63-14.6-6.27-2.62-1.69-7.71-5.02-12.01-11.02-6.27-8.74-7.2-18.01-7.33-22.51"/><path class="cls-2" d="m111.77,149.42c3.72-5.31,8.8-13.95,11.83-25.6,3.56-13.7,2.66-25.35,1.6-32.17"/><path class="cls-2" d="m97.62,122.13c2.6-4.09,5.32-9.1,7.7-15.02,3.5-8.72,4.77-15.77,5.1-17.74.34-2.01.53-3.58.67-4.77.8-6.83.85-12.47.75-16.42"/><circle class="cls-3" cx="106.59" cy="6.15" r="3.08"/><circle class="cls-3" cx="106.59" cy="229.54" r="3.08"/><circle class="cls-3" cx="10.68" cy="63.16" r="3.08"/><circle class="cls-3" cx="40.21" cy="42.08" r="3.08"/><circle class="cls-3" cx="72.47" cy="22.85" r="3.08"/><circle class="cls-3" cx="12.25" cy="176.4" r="3.08"/><circle class="cls-3" cx="6.84" cy="141.7" r="3.08"/><circle class="cls-3" cx="7.6" cy="101.76" r="3.08"/><circle class="cls-3" cx="140.28" cy="211.73" r="3.08"/><circle class="cls-3" cx="170.68" cy="194.13" r="3.08"/><circle class="cls-3" cx="200.91" cy="175.53" r="3.08"/><circle class="cls-3" cx="205.78" cy="141.69" r="3.08"/><circle class="cls-3" cx="204.06" cy="101.85" r="3.08"/><circle class="cls-3" cx="202.19" cy="63.68" r="3.08"/><circle class="cls-3" cx="138.52" cy="21.29" r="3.08"/><circle class="cls-3" cx="170.68" cy="41.06" r="3.08"/><circle class="cls-3" cx="39.39" cy="194.12" r="3.08"/><circle class="cls-3" cx="71.34" cy="212.23" r="3.08"/></g></svg>