<?xml version="1.0" encoding="UTF-8"?><svg id="Layer_2" xmlns="http://www.w3.org/2000/svg" width="35.78mm" height="58.54mm" viewBox="0 0 101.42 165.93"><defs><style>.cls-1{stroke:#7e4c1f;}.cls-1,.cls-2,.cls-3{stroke-width:.75px;}.cls-1,.cls-2,.cls-3,.cls-4,.cls-5,.cls-6,.cls-7,.cls-8{stroke-miterlimit:10;}.cls-1,.cls-2,.cls-3,.cls-5,.cls-6,.cls-7,.cls-8{fill:none;}.cls-2{stroke:#c4964d;}.cls-3{stroke:#dc7d27;}.cls-4{fill:#fbb778;stroke:#efc49b;}.cls-5,.cls-8{stroke:#231f20;}.cls-6{stroke:#f2c38c;}.cls-7{stroke:#cbb1a0;}.cls-9{fill:#f9c2c9;}.cls-9,.cls-10,.cls-11,.cls-12,.cls-13,.cls-14,.cls-15,.cls-16,.cls-17,.cls-18,.cls-19,.cls-20,.cls-21,.cls-22,.cls-23,.cls-24,.cls-25,.cls-26,.cls-27,.cls-28,.cls-29,.cls-30,.cls-31{stroke-width:0px;}.cls-10{fill:#887973;}.cls-11{fill:#3b9745;}.cls-12{fill:#38aa58;}.cls-13{fill:#3bb663;}.cls-14{fill:#349a46;}.cls-15{fill:#231f20;}.cls-16{fill:#cfcfd1;}.cls-17{fill:#e1e2cc;}.cls-18{fill:#cf6f45;}.cls-19{fill:#cdbeb1;}.cls-20{fill:#8ec859;}.cls-21{fill:#666664;}.cls-22{fill:#32a056;}.cls-23{fill:#ba9a78;}.cls-24{fill:#6bae44;}.cls-25{fill:#ec9571;}.cls-26{fill:#fdd5bf;}.cls-27{fill:#fdd5be;}.cls-28{fill:#ffd382;}.cls-29{fill:#efb674;}.cls-30{fill:#f3d4c4;}.cls-31{fill:#eac0ab;}.cls-8{stroke-width:.25px;}</style></defs><g id="Layer_1-2"><path class="cls-12" d="m92.25,110.9c1.68-1.92,1.73-2.19,3.31-3.9,1.29-1.4,2.42-2.48,3.19-3.18-.23-.32-.45-.64-.68-.96-6.81,8.06-12.11,13.51-13.51,14.59-1.76,1.36-3.48,1.74-3.48,1.74-.17.04-.3.06-.55.1-.79.13-1.65.22-3.92.31-.99.04-1.55.05-1.56.2,0,.14.43.31.46.32.53.21.98.08,1.09.05.86-.24,1.76-.17,2.64-.27,1.28-.15,2.01-.23,2.05-.05.04.19-.67.56-.92.69-.73.38-1.58.67-2.71.89-.92.18-1.48.2-1.75.77-.08.16-.16.43-.09.55.13.2.63-.24,1.37-.56,1.09-.47,1.2-.03,2.17-.48.82-.38,1.46-1.02,1.66-.76.04.06.09.19.09.31.02.22-.07.39-.12.47-.43.79-.6.99-.6.99-.69.79-1.04,1.18-1.12,1.33-.38.69-.54,1.58-.41,1.68.06.05.18-.08.21-.11.21-.22.18-.54.28-.86.1-.31.26-.46.48-.69.11-.12,1.36-1.47,2.03-2.98.28-.64.24-.79.31-1.05,0,0,.06-.18.16-.36.35-.62,1.76-1.14,1.76-1.14.35-.11.99-.67,2.27-1.75,2.87-2.43,5.73-5.69,5.9-5.88Z"/><path class="cls-29" d="m9.79,40.24c-1.46.62-4.65,1.96-5.83,4.47-1.62,3.45,1.18,7.73,1.74,8.56-2.76.4-4.95,2.31-5.54,4.77-.76,3.14,1.48,5.57,1.79,5.89,1.99,2.08,5.23,2.72,8.24,1.66-.1.3-.75,2.32.3,3.77,1.21,1.67,4.33,2.11,6.98.23-.68,2.25-.03,4.85,1.63,6.52s4.26,2.34,6.51,1.67c.67-.2,1.31-.5,2-.66,1.2-.27,2.45-.05,3.67.16,7.86,1.34,15.83,2.1,23.8,2.26,5.68.12,11.37-.07,17.06.07,1.83.04,4.22.3,4.56-.58.47-1.21-3.21-3.78-6.63-5.88,2.46,2.65,6.3,3.32,9.26,1.74,2.44-1.3,3.94-3.96,3.92-6.86,2.72,1.12,5.74-.06,6.86-2.35,1.26-2.59-.14-6.17-3.33-7.25,2.98.26,5.78-1.23,7.05-3.72,1.85-3.64-.68-7.23-.98-7.64-2.29-3.13-5.98-3.31-6.47-3.33.17-1.01.66-4.55-1.37-6.28-.87-.75-1.98-.97-6.03-.88-3.55.08-5.33.11-7.19.41-7.57,1.2-15.77-1.44-33.93-1.53-5.7-.03-11.4.11-17.09.51-1.05.07-2.6-.11-3.58.28-.83.33-1.2.9-1.6,1.3-1.7,1.72-3.38,1.64-5.81,2.67Z"/><path class="cls-6" d="m22.1,37.55c-3.39,2.28-6.64,4.75-9.75,7.4-1.07.91-2.22,2.06-2.12,3.46.07,1.1.93,2.02,1.93,2.48s2.12.56,3.22.65c3.11.25,6.82.23,8.6-2.33.18-.26.34-.59.22-.89-.1-.25-.37-.38-.63-.46-1.6-.5-3.28.33-4.76,1.12-3.71,2-7.44,4.02-10.68,6.71-1.45,1.2-2.91,2.91-2.47,4.74.29,1.21,1.4,2.11,2.61,2.44s2.49.19,3.71-.08c3.59-.77,6.97-2.55,9.64-5.08.66-.63,1.32-1.39,1.36-2.3-.95-.8-2.36-.85-3.52-.41s-2.11,1.3-2.96,2.2c-1.51,1.59-2.87,3.54-2.9,5.73s1.82,4.49,3.99,4.2c.9-.12,1.7-.65,2.44-1.18,3.28-2.36,6.25-5.14,8.82-8.25.39-.47.78-1.07.55-1.63-.12-.29-.38-.49-.66-.62-1.11-.54-2.51-.13-3.43.7s-1.46,1.99-1.92,3.14c-.97,2.46-1.65,5.04-2.02,7.66-.13.91-.22,1.87.1,2.74.5,1.34,1.92,2.17,3.34,2.3s2.83-.36,4.1-1.01c3.74-1.92,6.62-5.43,7.78-9.46-1.61-.91-3.77.13-4.68,1.74s-.9,3.56-.78,5.41c.1,1.45.33,3.05,1.47,3.95.75.6,1.75.76,2.71.88,1.69.21,3.38.34,5.08.39.57.02,1.16.02,1.68-.22.6-.28.99-.86,1.36-1.41,1.65-2.45,3.37-5.13,3.26-8.08-.67-.16-1.39-.08-2.01.22-.62.92-.5,2.19.03,3.17s1.39,1.73,2.26,2.42c2.92,2.32,6.08,4.33,9.43,5.97.23-2.53-.11-4.91-.48-7.42-.21-1.45-1-3.26-2.46-3.11-.65,2.33-1.25,4.99.04,7.03.82,1.3,2.24,2.06,3.6,2.77,2.6,1.36,5.21,2.72,7.81,4.08,1.11.58,2.25,1.17,3.49,1.38s2.62-.02,3.51-.9c.62-.61.94-1.45,1.12-2.29.86-3.98-1.13-7.99-3.33-11.42-1.69-2.63-3.94-5.4-7.06-5.64-.28-.02-.6-.01-.82.17-.29.23-.32.65-.33,1.02-.02.75-.04,1.49-.05,2.24-.01.42-.01.87.21,1.22.24.38.7.57,1.13.73,2.84,1.07,5.69,2.13,8.53,3.2,1.9.71,3.81,1.43,5.82,1.74.45.07.94.11,1.34-.1.37-.2.6-.59.77-.98,1.12-2.69-.37-5.9-2.68-7.67s-5.25-2.45-8.1-3.08c-.38,1.19.31,2.52,1.33,3.25s2.29.98,3.53,1.16c4.06.6,8.18.66,12.28.72.72.01,1.53-.02,2.03-.54.96-1.03-.2-2.64-1.34-3.47-4.85-3.52-10.73-5.61-16.72-5.93-.72,1.01.12,2.52,1.29,2.94s2.45.08,3.64-.25c4.53-1.27,9.06-2.54,13.59-3.81.35-.1.71-.21.95-.48.58-.67-.02-1.69-.67-2.29-3.31-3.12-7.93-4.41-12.43-5.03-1.98-.27-4.1-.41-5.86.52s-2.89,3.32-1.82,5.01c1.51.23,2.91-.76,4.11-1.69,2.16-1.66,4.31-3.33,6.47-4.99,1.08-.84,2.27-2.3,1.42-3.38-.41-.52-1.13-.65-1.8-.72-2.73-.27-5.51-.03-8.15.7-1.06.29-2.31,1.01-2.13,2.09.11.68.81,1.13,1.5,1.18s1.35-.19,1.98-.45c.95-.39,1.99-.91,2.27-1.9s-.93-2.19-1.71-1.53"/><path class="cls-30" d="m60.04,146.6c.17,2.29.34,4.58.51,6.87.21,2.81-.38,6.62-3.18,6.86-2.28.2-3.76-2.35-4.35-4.56-.91-3.44-1.12-7.06-.6-10.58,2.25-.09,4.79-.06,7.04.13.35.03.74.08.99.33s-.05.86-.4.94Z"/><path class="cls-21" d="m53.94,158.04c-1.26,1.16-2.1,2.3-2.66,3.19-.76,1.22-2.05,3.28-1.32,4.22.18.23.58.53,1.6.47.56-.03,1.35-.12,2.25-.44,2.16-.77,3.38-2.3,4.32-3.48.72-.91,1.72-2.39,2.43-4.49-.58.35-1.79.96-3.43,1.05-1.44.08-2.57-.28-3.18-.52Z"/><path class="cls-30" d="m43.22,146.3c.17,2.29.34,4.58.51,6.87.21,2.81-.38,6.62-3.18,6.86-2.28.2-3.76-2.35-4.35-4.56-.91-3.44-1.12-7.06-.6-10.58,2.25-.09,4.79-.06,7.04.13.35.03.74.08.99.33s-.05.86-.4.94Z"/><path class="cls-21" d="m37.12,157.74c-1.26,1.16-2.1,2.3-2.66,3.19-.76,1.22-2.05,3.28-1.32,4.22.18.23.58.53,1.6.47.56-.03,1.35-.12,2.25-.44,2.16-.77,3.38-2.3,4.32-3.48.72-.91,1.72-2.39,2.43-4.49-.58.35-1.79.96-3.43,1.05-1.44.08-2.57-.28-3.18-.52Z"/><path class="cls-31" d="m53.33,75.22c.01-1.83.03-3.66.04-5.49-3.75-.67-7.79-1.4-11.54-2.07-.12,2.27-.24,4.55-.36,6.82,4.52.55,7.33.19,11.86.74Z"/><path class="cls-17" d="m15.07,97.92c-.16-.82-.25-1.64-.26-2.45-.05-4.58,2.15-10.15,5.08-10.57.94-.13,1.18.37,3.24.49,1.91.11,3.3-.24,4.13-.42,1.74-.37,2.26-.24,8.29-.37,6.73-.14,6.64-.31,10.24-.34,9.04-.08,11.21.96,20.31,1,3.84.01,6.94-.16,8.8-.29.61-.05,1.22-.1,1.83-.16,3.48,7.61,6.11,15.61,7.84,23.8,1.2-.14,2.73-.48,4.3-1.33.36-.19.7-.4,1-.61-1.79-6.8-4.5-15.38-8.46-23.71-1.38-2.91-3.03-6.01-6.38-8.51-3.16-2.35-6.38-3.08-8.96-3.66-2.61-.59-6.92-1.22-12.34-.41-.17.27-2.17,3.37-6.02,3.54-3.99.18-6.29-2.95-6.44-3.17-7.46-.37-13.1,1.08-16.64,2.33-2.11.75-3.86,1.38-5.93,2.77-6.77,4.53-8.87,11.66-9.43,13.69-.6,2.16-1.58,5.67-.84,9.99"/><path class="cls-25" d="m27.9,72.44c-.16,3.24-.32,6.48-.47,9.73-1.45-.42-2.99-.51-4.47-.28-.12,5.23-1.64,10.29-3.15,15.25-4.72,15.55-9.44,31.1-14.16,46.66,2.87.46,7.39,1.15,12.94,1.81,14.89,1.78,29.31,3.42,46.6,1.51,4.88-.54,12.05-1.59,20.69-3.85.39-.05.77-.09,1.16-.14-2.33-11-5.51-18.92-8.04-24.21-2.17-4.53-4.99-9.44-6.15-16.77-.32-2.02-.76-5.8-1.02-9.99-.21-3.49-.25-6.42-.23-8.54-1.78-.4-3.55-.8-5.33-1.2.13-4.08-.11-8.37-.54-12.43-.84.07-1.77.09-2.77.03-.45-.03-.89-.07-1.31-.12.02,2.03.04,4.95.06,6.98.01,1.27.04,3.98.05,5.25-2.43-.22-5.88-.44-10.03-.41-4.52.03-6.4.33-10.27.24-2.57-.06-6.09-.29-10.29-1.05.13-3.33.27-6.66.4-9.98-1.33.17-2.33,1.33-3.66,1.51Z"/><path class="cls-18" d="m48.65,112.7c10.12-.17,19.03-1.36,26.43-2.83-.52-1.83-1.04-3.66-1.55-5.48-3.01.46-7.57,1.04-13.18,1.34-4.12.22-7.25.2-9.39.17-12.52-.13-28.65-.76-33.09-.94-.71,1.53-1.43,3.05-2.14,4.58,8.78,1.85,19.96,3.37,32.93,3.16Z"/><path class="cls-27" d="m74.93,34.66c0,2.64,0,5.31,0,7.95,1.2.37,2.33,1.09,2.99,2.17s.75,2.52.07,3.58c-.64.99-1.81,1.48-2.91,1.91-.33.13-.76.09-1.09.22-.01,3.38-1.63,6.57-3.7,9.24-7.17,9.27-20.43,13.29-31.54,9.56-2.38-.8-4.65-1.91-6.91-3.03-1.53-.75-3.08-1.52-4.39-2.62-1.85-1.57-3.1-3.73-4.13-5.92-1.72-3.67-2.97-7.58-2.7-11.63-.9-.16-1.81-.32-2.71-.48-.65-.11-1.32-.24-1.84-.63-.88-.64-1.14-1.88-.91-2.95s.84-2,1.44-2.9c.18-.27.37-.55.67-.66.28-.11.59-.05.89,0,.95.19,1.96.3,2.91.5.16-1.91.2-3.84.1-5.76,15.83.06,31.85-.12,47.68-.06,2.07,0,4.4.3,6.09,1.5Z"/><path class="cls-5" d="m38.22,58.29c.79.67,5.04,4.11,11.18,3.56,5.32-.48,8.63-3.67,9.49-4.55"/><path class="cls-8" d="m46.99,49.27c1.06-.39,2.21-.07,2.81.73.58.76.51,1.76.18,2.42-.55,1.12-2.07,1.72-3.65,1.28"/><circle class="cls-15" cx="40.34" cy="44.72" r="2.03"/><circle class="cls-15" cx="55.03" cy="44.72" r="2.03"/><ellipse class="cls-9" cx="63.13" cy="51.91" rx="3.81" ry="3.22" transform="translate(-15.05 28.08) rotate(-22.48)"/><ellipse class="cls-9" cx="31.35" cy="52.2" rx="3.22" ry="3.81" transform="translate(-28.87 61.21) rotate(-67.52)"/><path class="cls-7" d="m17.28,42.11c.13-.4.61-.56,1.02-.62.37-.06.79-.08,1.07.16.19.16.27.41.31.65.11.74-.21,1.53-.8,1.99"/><path class="cls-7" d="m74.89,47.86c-.38-.19-.45-.69-.45-1.11,0-.37.04-.79.33-1.03.19-.16.44-.21.69-.21.75,0,1.48.44,1.84,1.1"/><path class="cls-1" d="m32.31,39.16c.17-.86.86-1.6,1.7-1.83s1.81.06,2.4.71"/><path class="cls-1" d="m55.79,37.67c.57-.67,1.53-.97,2.39-.75s1.55.95,1.73,1.8"/><path class="cls-23" d="m76.54,30.68c.04-1.17,0-2.81-.34-4.71-.28-1.55-1.32-6.93-5.63-11.27-3-3.02-6.14-4.08-9.97-5.37-1.3-.44-7.3-2.39-15.51-1.88-3.02.19-7,.47-11.74,2.43-2.93,1.21-7.41,3.07-10.91,7.74-3.1,4.14-3.92,8.48-4.17,10.95,7.66.19,15.73.12,23.39.32,11.65.29,23.35.14,34.88,1.79Z"/><path class="cls-19" d="m15.85,26.71c.08,3.49.16,6.98.24,10.47,20.97-.19,41.94-.38,62.91-.57-.16-3.15-.32-6.29-.48-9.44-7.39-.16-14.79-.33-22.18-.49.07-6.6.14-13.19.21-19.79l-11.45-.44c-.08,6.77-.17,13.54-.25,20.31-9.66-.01-19.33-.03-28.99-.04Z"/><circle class="cls-10" cx="50.87" cy="11.04" r="1.26"/><circle class="cls-10" cx="50.65" cy="17.79" r="1.26"/><circle class="cls-10" cx="50.87" cy="25.1" r="1.26"/><circle class="cls-10" cx="50.87" cy="31.62" r="1.26"/><circle class="cls-10" cx="43.23" cy="31.62" r="1.26"/><circle class="cls-10" cx="35.02" cy="31.62" r="1.26"/><circle class="cls-10" cx="74.95" cy="31.62" r="1.26"/><circle class="cls-10" cx="67.32" cy="31.62" r="1.26"/><circle class="cls-10" cx="59.1" cy="31.62" r="1.26"/><circle class="cls-10" cx="27.74" cy="31.93" r="1.26"/><circle class="cls-10" cx="19.53" cy="31.93" r="1.26"/><path class="cls-16" d="m28.04,17.52c-3.02,1.07-6.68-2.53-8.26-4.61C15.82,7.67,16.31.34,17.51.01c.8-.22,1.05,2.93,4.52,5.62,2.46,1.91,4.48,1.99,7.33,4.83,1.1,1.1,1.52,1.8,1.61,2.62.2,1.83-1.26,3.84-2.93,4.44Z"/><path class="cls-16" d="m69.47,17.52c3.02,1.07,6.68-2.53,8.26-4.61,3.97-5.25,3.48-12.57,2.27-12.9-.8-.22-1.05,2.93-4.52,5.62-2.46,1.91-4.48,1.99-7.33,4.83-1.1,1.1-1.52,1.8-1.61,2.62-.2,1.83,1.26,3.84,2.93,4.44Z"/><path class="cls-22" d="m92.16,109.37c1.8-2.41,2-2.56,3.05-4.09,1.07-1.55,1.89-2.9,2.45-3.84,0,.01,0,.03.01.04.05.15.14.24.22.31-5.78,9.21-9.32,13.36-11.59,15.4h0c-1.21,1.06-2.23,1.95-2.78,2.8-.8,1.23-.9,2.77-.95,3.61-.14,2.29.57,4.2.02,4.71-.03.03-.11.1-.18.07-.12-.04-.32-.36-.22-2.77.12-2.79.48-4.46.33-4.52-.03-.01-.1.02-.73,1.75-.42,1.16-.63,1.74-.91,2.63-.28.88-.38,1.31-.69,2.13-.16.42-.5,1.32-.6,1.27-.1-.05.09-1.07.26-1.77.65-2.63,1.57-4.25,1.41-4.41-.09-.09-.45.33-.55.45-.66.79-.77,1.5-1.43,2.88-.34.7-.85,1.42-.95,1.33-.11-.09.27-1.14.31-1.25.34-.94.73-1.59.91-1.89,1-1.63,1.94-2.55,1.79-2.87-.03-.08-.14-.14-.22-.16-.16-.05-.3.04-.37.09-.67.45-.85.64-.85.64-.71.79-1.07,1.18-1.19,1.27-.59.4-1.28.48-1.34.31-.03-.08.09-.22.12-.25.2-.24.44-.16.7-.25.24-.08.34-.24.6-.52.82-.89,1.42-1.04,1.38-1.3-.04-.23-.52-.12-1.15-.67-.19-.16-.41-.4-.38-.48.04-.11.55.35,1.37.43.49.05.88-.06,1.38-.2.36-.1.37-.14.37-.16.04-.35-2.69-1.05-2.67-1.26.01-.09.54-.03.56-.03,1.59.17,2.05,1,2.88,1.04.61.03.86-.36,2.73-2.3,1.46-1.5,1.38-1.22,2.48-2.38,1.44-1.51,1.63-2.06,4.42-5.8Z"/><path class="cls-13" d="m91.19,109.04c1.15-2.14,1.94-3.83,2.27-4.57.8-1.75,1.43-3.32,1.91-4.58-.01,0-.02-.01-.04-.02-.12-.06-.21-.17-.27-.27-3.69,9.02-7.4,15.2-9.54,17.76-1.66,1.98-3.33,3.99-4.96,4.41-.15.04-1.01.25-1.91.97-.66.53-1.3,1.31-1.19,1.51.1.19.88-.19,1.31-.4,1.91-.94,2.99-2.18,3.14-1.98.09.11-.18.59-.25.72-.49.88-1.02,1.05-1.96,1.96-.95.92-.88,1.2-.86,1.28.09.27.53.31.56.32.53.05.95-.4,1.69-1.61.96-1.58,1.57-2.99,1.84-2.83.06.04.13.17.16.27.07.21.02.39,0,.49-.23.88-.34,1.12-.34,1.12-.48.95-.72,1.42-.76,1.59-.2.77-.14,1.68,0,1.74.07.03.15-.13.17-.17.15-.27.05-.57.07-.91.02-.33.14-.51.3-.79.08-.14.96-1.79,1.24-3.44.17-.96-.05-.86.12-1.5.29-1.12.95-1.41,2.03-2.63.13-.14.5-.64,1.26-1.65,1.4-1.86,2.37-3.76,4-6.8Z"/><path class="cls-12" d="m92.14,110.42c1.65-1.94,1.91-2.03,3.37-3.84,1.19-1.48,2.1-2.76,2.68-3.61.35.18.7.35,1.05.53-6.99,7.91-11.61,13.94-12.47,15.49-1.09,1.94-1.22,3.7-1.22,3.7-.01.18-.02.31-.02.56-.02.8.02,1.67.27,3.92.11.98.18,1.54.03,1.58-.13.03-.37-.38-.38-.41-.28-.49-.22-.96-.21-1.07.11-.89-.09-1.77-.11-2.66-.04-1.29-.06-2.03-.25-2.04-.19-.01-.45.74-.55,1.01-.27.78-.43,1.66-.49,2.81-.04.94.02,1.49-.51,1.84-.15.1-.4.23-.53.17-.22-.1.14-.66.35-1.43.31-1.15-.15-1.19.16-2.22.25-.87.8-1.59.51-1.75-.06-.04-.2-.06-.32-.05-.22.02-.37.13-.45.19-.72.54-.89.74-.89.74-.68.8-1.02,1.2-1.15,1.3-.63.48-1.48.76-1.6.65-.06-.05.06-.19.08-.22.19-.24.5-.26.81-.41.3-.14.41-.33.61-.57.1-.13,1.26-1.56,2.66-2.44.59-.37.75-.35,1-.46,0,0,.17-.08.34-.21.56-.43.87-1.91.87-1.91.06-.37.52-1.08,1.41-2.5,1.99-3.2,4.79-6.5,4.96-6.69Z"/><path class="cls-22" d="m94.01,110.53c2.24-2,2.38-2.22,3.8-3.4,1.45-1.2,2.72-2.14,3.61-2.78-.01,0-.03,0-.04-.01-.15-.04-.26-.12-.32-.19-8.67,6.57-12.5,10.46-14.33,12.89h0c-.95,1.3-1.74,2.39-2.54,3.02-1.15.91-2.68,1.14-3.51,1.26-2.27.34-4.23-.2-4.7.4-.03.04-.09.11-.06.19.05.12.38.29,2.78-.03,2.77-.37,4.4-.87,4.47-.72.01.03-.01.1-1.68.88-1.12.52-1.68.78-2.54,1.14-.85.35-1.27.49-2.06.88-.4.2-1.27.62-1.22.71.06.09,1.06-.18,1.74-.41,2.56-.88,4.09-1.94,4.27-1.79.1.08-.29.47-.4.58-.73.73-1.43.9-2.74,1.68-.66.4-1.33.97-1.25,1.06.1.1,1.11-.37,1.21-.42.91-.43,1.52-.87,1.8-1.07,1.54-1.14,2.37-2.16,2.71-2.04.08.03.15.13.18.2.06.16-.02.31-.06.38-.39.71-.56.9-.56.9-.72.78-1.08,1.17-1.16,1.3-.34.62-.36,1.32-.19,1.36.08.02.21-.11.24-.14.22-.22.12-.45.19-.72.06-.24.21-.36.47-.64.82-.89.91-1.51,1.17-1.49.24.02.17.51.77,1.09.18.17.44.38.51.34.1-.05-.4-.52-.55-1.32-.09-.48-.02-.88.07-1.39.07-.36.11-.38.13-.39.35-.07,1.28,2.59,1.49,2.55.09-.02-.01-.54-.02-.56-.31-1.57-1.18-1.96-1.29-2.78-.08-.61.29-.89,2.05-2.92,1.37-1.58,1.09-1.48,2.15-2.67,1.38-1.57,1.91-1.8,5.39-4.91Z"/><path class="cls-13" d="m93.28,111.26c1.62-1.81,2.94-3.13,3.52-3.7,1.37-1.35,2.63-2.47,3.66-3.36,0,0,.02.02.03.03.1.09.24.14.35.17-7.22,6.55-11.77,12.13-13.45,15.02-1.3,2.24-2.61,4.49-2.45,6.16.01.16.11,1.03-.26,2.13-.27.8-.78,1.67-1.01,1.63-.22-.03-.12-.89-.07-1.37.23-2.11,1.03-3.55.79-3.63-.14-.04-.49.37-.59.48-.66.76-.64,1.31-1.17,2.51-.54,1.2-.83,1.24-.91,1.24-.28,0-.48-.39-.49-.42-.23-.48.05-1.03.94-2.13,1.16-1.45,2.27-2.5,2.03-2.7-.06-.05-.21-.07-.31-.06-.22,0-.38.12-.46.17-.75.51-.93.7-.93.7-.73.77-1.09,1.16-1.24,1.26-.66.45-1.53.7-1.64.59-.05-.05.07-.19.1-.22.21-.23.52-.24.83-.37.31-.13.43-.31.65-.55.11-.12,1.35-1.51,2.81-2.34.84-.48.83-.24,1.37-.62.95-.66,1-1.37,1.78-2.81.09-.17.43-.69,1.12-1.75,1.27-1.95,2.73-3.51,5.02-6.08Z"/><path class="cls-26" d="m86.01,116.14c.19-1.15.34-2.5.36-4.02.02-1.49-.09-2.82-.25-3.96,1-.2,1.92-.58,2.75-1.18.59,1.07,1.17,2.15,1.76,3.22.12.22.24.43.38.63.24.33.56.6.83.91.91,1.07,1.18,2.54,1.19,3.95,0,.45-.03.94-.33,1.29-.3.34-.95.38-1.14-.03.11.56.18,1.25-.27,1.6-.21.17-.43.21-.49.22-.48.07-.84-.26-.9-.31-.1.27-.27.61-.59.9-.24.22-.54.49-.89.41-.28-.06-.48-.33-.54-.57-.09-.34.09-.64.29-1,.21-.36.31-.37.42-.6.19-.4.12-.8.04-1.22-.22-1.15-.84-2-.98-1.95-.03.01-.03.06-.13.2-.05.06-.09.1-.12.14-.16.17-.25.26-.44.44-.19.18-.17.18-.4.41-.13.13-.32.31-.56.52Z"/><path class="cls-14" d="m51.41,100.77c.74-.82,1.76-1.76,3.21-2.68,2.01-1.26,3.85-1.85,3.81-1.97-.02-.05-.39.03-.7.12-.9.32-2.18.85-3.58,1.74-.55.35-1.19.76-1.93,1.44-1.33,1.22-1.93,2.33-2.57,3.51-.48.89-.62,1.34-.46,1.49.12.11.4.02.58-.05.5-.17.8-.49.84-.53.58-.59,2.11-.48,3.73-.6,1.65-.12,1.52-.35,4.48-.69.77-.09,1.34-.14,2.09-.08.66.06,1.53.14,2.48.65,1,.54,1.61,1.31,1.94,1.83.93,1.06,1.15,1.24,1.18,1.21.07-.06-.51-1.08-1.38-1.95-.29-.29-1.26-1.24-2.7-1.72-1.54-.51-2.87-.2-3.87-.07-2.57.33-5.15.63-7.74.89.78-.43,1.58-.72,2.41-1.01,1.28-.44,1.6-.56,3.91-1.35,2.65-.9,3.04-1.09,4.32-1.41.67-.17,1.33-.33,2.26-.48,1.2-.19,1.99-.22,1.99-.29,0-.08-.84-.16-1.68-.14-1.3.04-2.3.33-3.15.6-.45.14-.77.25-1.24.42-3.17,1.16-3.67,1.43-5.65,2.12-1.38.49-1.56.51-2.29.83-1.28.57-1.83,1.01-1.98.85-.24-.24.75-1.66,1.68-2.7Z"/><path class="cls-20" d="m15.74,103.61c-.33-1.82-.33-3.71.03-5.53.73,1.76,1.48,3.65,1.1,5.51-.04-.64-.09-3.02,1.58-4.87,2.31-2.56,6.2-2.2,6.27-1.92.06.26-2.98.45-4.49,2.72-.95,1.43-.91,3.12-.77,4.2,1.71-1.59,4.16-2.14,6.49-2.14,1.04,0,2.23.16,2.82,1.02-1.31-.21-2.71.39-3.45,1.48-3.21.19-6.4-.02-9.59-.48Z"/><path class="cls-24" d="m9.15,106.09c-.83-.86-1.66-1.71-2.44-2.61-.73-.83-1.47-1.85-1.26-2.94.03-.14.07-.28.18-.37.09-.07.21-.09.33-.11,1.63-.2,3.34.57,4.26,1.92.22-.7.71-1.34,1.4-1.59s1.56,0,1.9.65c.16.31.18.67.3,1s.38.65.73.65c.33,0,.59-.29.92-.36.63-.12,1.07.62,1.22,1.25.16.68.24,1.38.22,2.08-2.6,1.67-5.34,2.92-7.76.42Z"/><path class="cls-11" d="m23.1,106.86c-.12.04-.24.08-.35.14-.41-1.92.42-3.88,1.44-5.56,1.56-2.58,3.59-4.87,5.96-6.73-.55.76-1.11,1.51-1.66,2.27-.81,1.11-1.63,2.22-2.25,3.45-.97,1.89-1.45,4.02-1.41,6.14-.16-2.05.55-4.11,1.72-5.8s2.78-3.04,4.51-4.14c-1.44,1.87-2.78,3.81-4.02,5.81-.81,1.32-1.6,2.74-1.63,4.28.01-.74-3.45.86-3.64.86-.1,0-.21-.01-.29-.07-.09-.08-.12-.21-.14-.33-.28-1.83-.46-3.68-.52-5.53-.06-1.74-.02-3.49-.32-5.2s-.97-3.42-2.24-4.6c.9.32,1.48,1.18,1.92,2.03,2.05,3.98,2.2,8.64,2.28,13.12"/><path class="cls-4" d="m7.65,112.46c.35,1.66,1.1,5.2,3.63,8.74,2.15,3,4.6,4.63,5.62,5.29,8.04,5.23,17.43,3.44,23.12,2.35,6.89-1.31,9.28-3.45,10.27-4.48,1.62-1.7,2.76-3.86,3.35-4.99.63-1.2,1.71-3.47,2.45-6.51.81-3.34.9-6.3.77-8.56-7.35.86-15.56,1.45-24.51,1.5-9.28.06-17.78-.47-25.35-1.3-.02.68-.04,1.59.01,2.68.03.76.15,3,.63,5.27Z"/><path class="cls-28" d="m6.59,103.04c-.13.82-.25,1.65-.38,2.47,1.34.27,3.26.64,5.59.98,4.3.62,7.78.83,20.19.86,12.84.03,16.25-.18,20.71-1.03,2.28-.43,4.15-.9,5.41-1.25,0-.8.02-1.61.03-2.41-2.07.21-5.26.52-9.18.78-2.61.17-13.9.89-29.77.3-3.08-.11-7.4-.31-12.6-.7Z"/><path class="cls-2" d="m6.72,105.48l3.31-2.34"/><path class="cls-2" d="m10.83,106.27c.27.01.51-.17.72-.34.86-.72,1.64-1.52,2.34-2.39"/><path class="cls-2" d="m15.46,106.99c.3.06.59-.08.86-.23,1.34-.76,2.54-1.78,3.5-2.99"/><path class="cls-2" d="m21.98,107.29c.25-.02.47-.15.68-.28,1.21-.72,2.44-1.45,3.36-2.52.12-.14.23-.28.28-.45"/><path class="cls-2" d="m28.83,107.47c1.56-.84,2.59-2.4,3.95-3.53"/><path class="cls-2" d="m35.03,107.37c.35-.06.64-.31.91-.54,1.18-1.02,2.41-1.97,3.69-2.86"/><path class="cls-2" d="m42.89,107.33c1.49-.82,2.77-2.01,3.7-3.43"/><path class="cls-2" d="m49.62,106.84c1.1-1.09,2.08-2.28,2.94-3.57"/><path class="cls-2" d="m54.65,105.95c1.25-.79,2.35-1.83,3.2-3.03"/><path class="cls-3" d="m7.2,108.69c1.2.03,2.26.77,3.42,1.05,1.55.38,3.22-.06,4.78.32"/><path class="cls-3" d="m18.7,109.54h2.7"/><path class="cls-3" d="m25.15,109.09c.9.03,1.8.1,2.7.22"/><path class="cls-3" d="m30.29,109.46h5.93"/><path class="cls-3" d="m39.88,109.54c.78.1,1.57.13,2.35.09"/><path class="cls-3" d="m43.45,109.37h.7"/><path class="cls-3" d="m46.25,108.91c3.52.22,7.09-.22,10.45-1.29"/><path class="cls-3" d="m7.37,112.14c2.41.04,4.82.08,7.23.13"/><path class="cls-3" d="m18.79,112.42h1.13"/><path class="cls-3" d="m22.36,112.42h1.66"/><path class="cls-3" d="m27.07,112.18c3.95-.17,7.92-.03,11.85.4"/><path class="cls-3" d="m43.89,112.07h1.39"/><path class="cls-3" d="m48.16,111.2c.52.04,1.05.01,1.57-.09"/><path class="cls-3" d="m51.65,111.64h2.09"/><path class="cls-3" d="m8.94,116.52h1.92"/><path class="cls-3" d="m12.6,116.53c.44-.04.88-.03,1.31.04"/><path class="cls-3" d="m15.74,116.17c.49-.05.99-.02,1.48.09"/><path class="cls-3" d="m19.58,116.09l9.32.33"/><path class="cls-3" d="m30.73,116.69h2.53"/><path class="cls-3" d="m35.35,116.59c1.83.09,3.67.03,5.49-.16"/><path class="cls-3" d="m43.46,116.4c3.9-.08,7.8-.36,11.68-.86"/><path class="cls-3" d="m10.68,120.24c3.02,0,6.05.11,9.06.35"/><path class="cls-3" d="m21.4,120.7c.61.04,1.23.02,1.83-.07"/><path class="cls-3" d="m25.59,120.35c.62-.04,1.25.04,1.84.23"/><path class="cls-3" d="m31.78,120.33c1.89.12,3.79.04,5.66-.24"/><path class="cls-3" d="m39.79,120.26h2.35"/><path class="cls-3" d="m43.98,120.61h1.66"/><path class="cls-3" d="m47.9,120.08c1.74.04,3.49.03,5.23-.03"/><path class="cls-3" d="m14,123.56c.64.04,1.28.12,1.91.22"/><path class="cls-3" d="m17.13,124.19h2"/><path class="cls-3" d="m21.4,124.43c3.05.09,6.11.05,9.15-.12"/><path class="cls-3" d="m34.13,124.53c.61.07,1.24.02,1.83-.17"/><path class="cls-3" d="m39.18,124.27h1.74"/><path class="cls-3" d="m43.72,124.21c2.24-.11,4.47-.22,6.71-.34"/><path class="cls-3" d="m21.92,127.72c1.58.08,3.16.65,4.72.33"/><path class="cls-3" d="m29.42,127.33c.78-.05,1.57-.03,2.36.05"/><path class="cls-3" d="m34.57,126.99c3.54-.09,7.09-.03,10.63.19"/><path class="cls-26" d="m23.88,118.49c.26.37.54.76.96.95.42.18,1.01.05,1.15-.38.1-.32-.06-.66-.24-.95-.63-1.05-1.39-2.02-2.26-2.87.85.69,1.7,1.38,2.55,2.07.4.32.89.66,1.37.5.08-.16.18-.43.12-.72-.08-.42-.41-.65-.83-.98-.35-.27-.86-.68-1.49-1.24,1.09.33,1.88.66,2.42.92.29.13.66.32.97.16.28-.14.46-.54.37-.84-.08-.27-.43-.42-1.14-.71-1.38-.56-1.67-.67-1.65-.73.02-.08.78-.04,1.55.12.87.18,1.25.4,1.65.18.18-.11.38-.31.37-.54,0-.16-.12-.33-.57-.61-.71-.44-1.24-.57-1.24-.57-1.55-.42-2.95-.8-2.94-1.1,0-.21.71-.19,1.59-.78.39-.26.67-.55.84-.74.14-.29.26-.66.1-.87-.32-.44-1.6.02-1.97.13-1.26.38-3.4.12-7.22-2.67-.62.84-1.24,1.69-1.86,2.53-.45.62,2.98,3.94,3.53,4.61,1.35,1.66,2.64,3.38,3.87,5.13Z"/><path class="cls-17" d="m8.43,99.54c.11.62.25,1.25.43,1.9,1.6,5.66,5.38,8.97,6.88,10.16,1.15-2.22,2.75-4.2,4.69-5.79-2.85-1.52-4.71-4.63-5.36-7.89"/></g></svg>