<?xml version="1.0" encoding="UTF-8"?><svg id="Layer_2" xmlns="http://www.w3.org/2000/svg" width="52.24mm" height="59.43mm" viewBox="0 0 148.07 168.47"><defs><style>.cls-1,.cls-2,.cls-3{fill:none;}.cls-1,.cls-4,.cls-5,.cls-6,.cls-7,.cls-8,.cls-9,.cls-10,.cls-11,.cls-12,.cls-13,.cls-14,.cls-15,.cls-16,.cls-17,.cls-18,.cls-19,.cls-20{stroke-width:0px;}.cls-21{fill:#aaa8a8;stroke:#5d5d5c;stroke-width:.5px;}.cls-21,.cls-22,.cls-2,.cls-23,.cls-3{stroke-miterlimit:10;}.cls-22{fill:#5d5d5c;stroke:gray;}.cls-2,.cls-3{stroke:#231f20;}.cls-23{fill:#874f31;stroke:#fff;stroke-width:.75px;}.cls-4{fill:#808285;}.cls-5{fill:#887973;}.cls-6{fill:#968d97;}.cls-7{fill:#231f20;}.cls-8{fill:#cfcfd1;}.cls-9{fill:#e39b5a;}.cls-10{fill:#b18c72;}.cls-11{fill:#b1bfca;}.cls-12{fill:#cdbeb1;}.cls-13{fill:#bb9374;}.cls-14{fill:#ba9a78;}.cls-15{fill:#96a1b6;}.cls-16{fill:#7d4f4b;}.cls-17{fill:#fdd5be;}.cls-18{fill:#f3d4c4;}.cls-19{fill:#e6e8ef;}.cls-20{fill:#6a6256;}.cls-3{stroke-width:.25px;}</style></defs><g id="Layer_1-2"><path class="cls-18" d="m71.27,143.41c.23,2.11.47,4.23.7,6.34.29,2.59-.52,6.11-4.37,6.33-3.13.18-5.17-2.17-5.97-4.21-1.25-3.17-1.54-6.52-.83-9.77,3.09-.08,6.59-.06,9.67.12.49.03,1.02.07,1.36.31s-.07.79-.55.87Z"/><path class="cls-18" d="m91.02,143.14c.23,2.11.45,4.23.68,6.34.28,2.59-.51,6.11-4.24,6.33-3.04.18-5.01-2.17-5.79-4.21-1.21-3.17-1.49-6.52-.8-9.77,3-.08,6.38-.06,9.37.12.47.03.98.07,1.31.31s-.07.79-.53.87Z"/><path class="cls-20" d="m72.1,148.84c-.08,2.9.13,5.14.36,6.73,0,0,0,0,0,.01.09.64.27,2.27-.19,4.43-.31,1.47-.47,2.22-1.02,3.05-.21.32-.93,1.35-3.63,2.61-2.29,1.07-4.09,1.9-6.47,1.7-.47-.04-4.3-.4-4.79-2.39-.34-1.39,1.12-2.88,1.19-2.95.63-.62,1.47-1.04,2.64-1.61.72-.35,1.54-.69,1.83-1.49.07-.21.08-.38.1-.48.1-.74,0-1.78-.61-4.57-.28-1.27-.68-2.95-1.23-4.91,3.87-.29,7.94-.09,11.83-.12Z"/><path class="cls-20" d="m91.9,157.88c-.15,1.6-.06,2.03-.32,3.28-.22,1.05-.4,1.91-.9,2.7-.75,1.17-1.87,1.62-3.69,2.31-6.71,2.54-7.34,2.4-7.83,2.19-1.62-.68-2.94-2.52-2.77-4.12.16-1.49,1.47-1.37,2.67-3.6.98-1.83,1.13-3.84,1.33-6.13.29-3.42.09-3.52.34-4.41.18-.67,10.84-1.21,11.69-.5.62.51.31,1.78.13,3.95-.16,1.9-.43,2.02-.65,4.33Z"/><path class="cls-10" d="m57.33,92.77c-.64,1.16-2.06,2.18-3.45,3.14-1.89,1.31-3.87,2.66-6.34,3.44-1.2.38-2.47.61-3.73.84-1.04.19-2.08.37-3.12.56-2.55.46-5.12.92-7.67,1.13-1.3.11-2.7.13-3.57-.35-.71-.39-.93-1.02-1.13-1.63-.86.4-2,.25-2.57-.17s-.71-1.03-.82-1.61c-.12-.61-.23-1.25.04-1.89.18-.44.53-.87.93-1.28,2.37-2.43,6.34-4.17,10.26-5.61,2.69-.99,5.48-1.89,8.36-2.43,5.04-.94,8.78,1.56,12.07,3.48.56.33,1.12.68,1.37,1.15s.16,1.09-.46,1.54c-.12-.15-.06-.17-.18-.31Z"/><path class="cls-10" d="m116.03,83.41c4.61.37,9.88,3.45,10.08,6.97.04.64-.1,1.19-.24,1.59-6.01.18-11.96,2.52-17.91,1.6-.86-.13-1.76-.36-2.39-.96-1.01-.96-1.22-2.45-1.13-3.28.34-3.19,6.2-6.35,11.59-5.92Z"/><path class="cls-13" d="m44.97,98.39c-3.61,5.39-3.55,11.44-3.44,13.47.29,5.1,2.17,5.85,1.72,10.6-.39,4.14-1.95,5.01-1.91,8.53.06,4.65,2.84,8.13,3.57,9.04,2.8,3.51,6.62,4.65,24.97,6.62,0,0,17.63,1.89,29.69-.87,0,0,6.4-1.47,6.43-3.67,0-.63-.54-1.02-.75-2.27-.22-1.39.4-2.5.33-2.91-1.96-11.18-.19-22.63.53-33.96.12-1.83.16-3.82-.9-5.32-.82-1.16-2.15-1.81-3.43-2.42-2.08-.99-4.16-1.98-6.34-2.71-3.71-1.25-7.63-1.75-11.52-2.24-7.6-.96-15.22-1.91-22.89-2.02-2.01-.03-3.59-.07-5.11.58-.94.4-1.53.93-1.86,1.2-5.37,4.53-8.06,6.8-9.09,8.33Z"/><path class="cls-17" d="m47.52,61.83c.7,1.69,1.58,3.3,2.27,5,.65,1.59,1.13,3.25,1.82,4.82.65,1.5,1.46,2.91,2.28,4.32.4.7.83,1.42,1.49,1.88.79.55,1.81.64,2.77.64,6.9-.02,13.26-4.05,20.16-4.39,1-.05,2.01-.02,2.99.2,1.01.23,1.97.67,2.92,1.08,3.71,1.63,7.59,3.07,11.64,3.3s8.33-.88,11.2-3.75c1.86-1.86,3.01-4.32,3.91-6.8,2.12-5.82,3.08-12.08,2.55-18.25-.1-1.17-.26-2.37-.84-3.39-.75-1.32-2.09-2.16-3.28-3.09-2.02-1.57-3.73-3.5-5.7-5.12s-4.33-2.97-6.88-3.05c-1.12-.03-2.23.18-3.35.24-1.42.08-2.84-.06-4.25-.22-4.29-.46-8.6-.97-12.91-.7-3.49.22-6.95.94-10.44.91-2.05-.02-4.11-.3-6.15-.01-2,.28-3.88,1.1-5.73,1.91-2.58,1.14-5.15,2.32-7.7,3.51-1.45.68-1.56.61-1.54,2.19.02,1.32.04,2.63.09,3.95.19,5.03.75,10.12,2.69,14.81Z"/><path class="cls-6" d="m92.3,134.94c0,2.2-1.8,3.99-3.99,3.99h-18.09c-2.2,0-3.99-1.8-3.99-3.99v-11.94c0-2.2,1.8-3.99,3.99-3.99h18.09"/><rect class="cls-11" x="72.36" y="123.99" width="13.04" height="9.96" rx="2.07" ry="2.07"/><path class="cls-9" d="m92.58,102.74c-2.48,1.83-5.75,2.09-8.83,2.27-3.92.23-7.9.44-11.75-.31-6.92-1.34-13.44-6.37-14.92-13.27-1.13,1.15-2.36,2.2-3.68,3.13-.4.28-.86.57-1.35.52-.45-.04-.82-.35-1.15-.65-2.46-2.26-4.29-5.11-5.97-8-2.08-3.56-4.03-7.42-4.02-11.55.01-3.39,1.37-6.75.89-10.11-.15.15-.99.96-2.3.94-1.17-.02-1.93-.68-2.12-.85.98-1.95,1.96-4.11,2.86-6.48,1.76-4.63,2.81-8.93,3.44-12.63h0c1.13-.18,2.27-.37,3.4-.55-.61,10.78,3.18,21.75,10.33,29.85,1.44-1.53,12.19-12.59,25.02-11.21,2.21.24,6.64.72,10.75,4.09,3.25,2.67,4.76,5.89,5.43,7.65,1.38.07,2.42-1.21,3.15-2.38,5.26-8.4,7.72-18.52,6.92-28.4,1.41.33,2.82.67,4.22,1,.65,3.29,1.76,7.27,3.68,11.58,1.17,2.61,2.43,4.88,3.66,6.83-.19.27-1.2,1.6-3.05,1.89-1.43.22-2.54-.32-2.9-.52.57,2.94,1.04,6.65.99,10.93-.05,4.21-.59,7.86-1.21,10.75"/><path class="cls-2" d="m71.01,74.97c1.17,2.36,3.31,4.21,5.81,5.04,2.5.83,5.32.62,7.67-.57,1.28-.65,2.51-1.75,2.59-3.18"/><circle class="cls-7" cx="68.43" cy="56.08" r="3.43"/><path class="cls-1" d="m78.88,105.5c-.06,4.5-.12,9-.19,13.5,0-.29-.01-.58-.02-.88"/><path class="cls-16" d="m40.2,121.01c0,1.17.2,2.09.28,2.37.87,3.21,8.46,6.16,16.76,7.48,2.06.33,5.12.7,8.9.75.27-2.6.31-5.23.13-7.84-6.2.7-10.6-.22-13.15-.99-4.24-1.29-6.36-1.93-8.4-3.35-1.45-1-2.85-2.27-3.71-1.79-.8.44-.8,2.19-.8,3.36Z"/><path class="cls-19" d="m4.23,49.65c-.86-5.38-1.55-7.52-3.62-19.81,0,0-1.68-9.96.55-18.12.48-1.77,1.39-3.19,2.01-4.37.52-.99,1.14-2.06,2.2-2.42,1.07-.36,2.23.15,3.19.73,5.11,3.11,8.27,8.67,10.16,14.34,1.94,5.85,2.76,9.58,4.43,17.39,2.62,12.26,2.36,9.71,4.3,19.11,1.46,7.09,3.17,16.09,4.78,26.63-4.96-.09-9.94.7-14.62,2.33-1.31.45-2.67.98-4.03.77,0,0-.86-.2-1.65-.79-3.35-2.46-6.29-26.97-7.69-35.81Z"/><path class="cls-15" d="m19.64,106.21c2.71.58,5.51-.01,8.21-.61,1.46-.32,2.92-.64,4.37-.96-.86-8.32-2.32-14.49-3.42-16.85-.66-1.42-1.49-2.95-1.49-2.95-1.03-1.9-1.88-3.22-1.98-3.38-2.7-4.29-6.24-36.69-12.27-56.72-1.37-4.54-4.63-14.3-5.96-14.01-.45.1-.54,1.28-.59,1.94-.98,13.36.1,19.57.1,19.57,1.99,11.41,2.88,14.78,2.88,14.78,2.21,8.3,5.2,20.58,8.89,38.76,0,0-1.68,1.61-2.18,2.26-1.41,1.81-.33,4.67,1.29,10.24.52,1.79,1.29,4.52,2.14,7.93Z"/><path class="cls-19" d="m5.84,89.08c-.06,1.57.73,3.01,1.5,4.35,4.48-.25,8.87-1.37,13.24-2.49,5.71-1.46,11.41-2.92,17.12-4.37.4-.1.83-.22,1.1-.56.38-.48.34-1.1.31-1.46-.26-2.89-.39-4.33-1.31-5.02-1.21-.89-2.83-.03-6.79,1.23-1.37.43-3.52.97-7.81,2.04-6.87,1.71-10.31,2.57-11.27,2.67-1.44.15-4.75.41-5.64,2.11-.37.71-.44,1.52-.44,1.52Z"/><path class="cls-19" d="m17.23,108.32c-.4,1.34.48,3.02,1.59,3.86.76.58,2.08,1.08,10.39-1.53,5.45-1.71,6.66-2.49,7.12-3.79.38-1.08.29-2.66-.61-3.6-.58-.6-1.39-.84-2.75-.89-2.49-.1-3.71.57-7.46,1.66-2.6.76-4.3,1.1-6.52,2.46-.86.52-1.52,1.03-1.76,1.84Z"/><path class="cls-4" d="m123.02,151.29c-1.02.42-2.04.83-3.07,1.25-1.21.33-2.89.57-4.69.06-.96-.27-1.55-.64-3.49-1.79-1.41-.83-2.85-1.61-4.24-2.46-3.94-2.41-10.17-6.22-14.32-8.09-.44-.2-1.61-.72-2.82-1.81-.31-.28-1.24-1.16-2.06-2.6-.73-1.28-1.08-2.48-1.25-3.35.05-8.92.1-17.83.15-26.75.14-.95.58-2.97,2.14-4.95,1.38-1.75,2.98-2.62,3.84-3.02,3.3-1.81,6.63-3.67,9.98-5.58,3.78-2.15,7.49-4.3,11.13-6.45,3.05-1.06,5.01-.6,5.99-.23.52.2,1.03.47,2.04,1.01,1.54.83,2.77,1.6,3.59,2.14,3.11,1.73,6.28,3.54,9.48,5.42,3.23,1.9,6.36,3.8,9.41,5.7.41.31.99.8,1.53,1.51,1.74,2.31,1.64,5.04,1.61,6.23-.1,3.78.02,11.4.04,21.53.11,1.02.16,2.85-.56,4.97-.8,2.35-2.15,3.86-2.91,4.6-4.19,2.44-8.4,4.9-12.62,7.38-2.98,1.76-5.95,3.51-8.91,5.27Z"/><path class="cls-23" d="m117.42,148.03c-.29,0-.56-.04-.82-.11-.26-.07-.6-.27-1.95-1.06l-.4-.24c-.59-.35-1.19-.69-1.79-1.03-.83-.47-1.62-.92-2.38-1.39-4.15-2.54-10.43-6.38-14.86-8.37h-.03c-.32-.16-.91-.42-1.52-.98-.19-.17-.68-.65-1.11-1.4-.26-.46-.46-.95-.6-1.47l.15-25.79c.14-.66.44-1.53,1.1-2.36.69-.87,1.5-1.36,2.06-1.62l.16-.07.15-.08c3.35-1.84,6.72-3.73,10.04-5.61,3.58-2.03,7.19-4.12,10.74-6.22.57-.17,1.09-.25,1.53-.25.29,0,.54.04.73.11.23.09.68.33,1.45.74,1.11.6,2.19,1.24,3.22,1.92l.15.1.16.09c3.13,1.74,6.29,3.54,9.37,5.36,3.04,1.79,6.1,3.64,9.1,5.51.16.13.3.28.42.44.69.91.65,2.29.63,3.11v.07c-.06,2.45-.04,6.45-.01,11.52.02,3,.04,6.4.04,10.15v.25s.03.24.03.24c.07.68.07,1.73-.33,2.9-.34,1.01-.87,1.77-1.34,2.31-4.01,2.33-8.06,4.7-12.05,7.05-2.84,1.67-5.73,3.38-8.61,5.09l-2.42.98c-.36.08-.7.12-1.01.12Z"/><circle class="cls-22" cx="117.82" cy="119.25" r="8.26"/><circle class="cls-21" cx="117.9" cy="86.79" r=".85"/><circle class="cls-21" cx="117.55" cy="150.77" r=".85"/><circle class="cls-21" cx="89.68" cy="102.93" r=".85"/><circle class="cls-21" cx="98.79" cy="96.37" r=".85"/><circle class="cls-21" cx="107.96" cy="91.4" r=".85"/><circle class="cls-21" cx="89.97" cy="135.72" r=".85"/><circle class="cls-21" cx="88.83" cy="124.66" r=".85"/><circle class="cls-21" cx="88.83" cy="113.22" r=".85"/><circle class="cls-21" cx="127.43" cy="146.47" r=".85"/><circle class="cls-21" cx="136.47" cy="141.3" r=".85"/><circle class="cls-21" cx="144.47" cy="135.72" r=".85"/><circle class="cls-21" cx="146.17" cy="125.52" r=".85"/><circle class="cls-21" cx="146.17" cy="113.24" r=".85"/><circle class="cls-21" cx="145.32" cy="103.54" r=".85"/><circle class="cls-21" cx="126.72" cy="90.97" r=".85"/><circle class="cls-21" cx="135.62" cy="96.44" r=".85"/><circle class="cls-21" cx="98.65" cy="141.3" r=".85"/><circle class="cls-21" cx="106.67" cy="145.3" r=".85"/><path class="cls-14" d="m110.2,39.26c.05-1.3,0-3.11-.37-5.23-.31-1.72-1.46-7.68-6.24-12.49-3.32-3.34-6.8-4.52-11.05-5.95-1.44-.49-8.1-2.64-17.19-2.08-3.35.21-7.76.52-13.01,2.69-3.25,1.34-8.21,3.4-12.09,8.58-3.43,4.59-4.34,9.4-4.62,12.14,8.49.21,17.43.14,25.93.35,12.91.32,25.87.15,38.65,1.99Z"/><path class="cls-12" d="m42.93,34.86c.09,3.87.18,7.73.26,11.6,23.24-.21,46.48-.42,69.71-.64-.18-3.49-.36-6.97-.54-10.46-8.2-.18-16.39-.36-24.59-.54.08-7.31.16-14.62.24-21.93-4.23-.16-8.46-.33-12.69-.49-.09,7.5-.19,15.01-.28,22.51-10.71-.02-21.42-.03-32.13-.05Z"/><circle class="cls-5" cx="81.74" cy="17.5" r="1.39"/><circle class="cls-5" cx="81.51" cy="24.98" r="1.39"/><circle class="cls-5" cx="81.74" cy="33.07" r="1.39"/><circle class="cls-5" cx="81.74" cy="40.3" r="1.39"/><circle class="cls-5" cx="73.29" cy="40.3" r="1.39"/><circle class="cls-5" cx="64.18" cy="40.3" r="1.39"/><circle class="cls-5" cx="108.43" cy="40.3" r="1.39"/><circle class="cls-5" cx="99.98" cy="40.3" r="1.39"/><circle class="cls-5" cx="90.87" cy="40.3" r="1.39"/><circle class="cls-5" cx="56.12" cy="40.65" r="1.39"/><circle class="cls-5" cx="47.01" cy="40.65" r="1.39"/><path class="cls-8" d="m55.96,24.64c-3.84,1.37-8.51-3.22-10.51-5.86-5.05-6.68-4.42-16-2.89-16.43,1.02-.28,1.33,3.73,5.76,7.16,3.13,2.43,5.71,2.54,9.33,6.15,1.4,1.39,1.93,2.3,2.05,3.34.26,2.33-1.61,4.89-3.73,5.65Z"/><path class="cls-8" d="m98.98,24.62c4.24,1.51,9.39-3.55,11.6-6.47C116.15,10.77,115.47.48,113.78.02c-1.13-.31-1.47,4.12-6.35,7.9-3.45,2.68-6.3,2.8-10.3,6.78-1.54,1.54-2.13,2.53-2.26,3.69-.29,2.57,1.78,5.4,4.11,6.23Z"/><circle class="cls-7" cx="89" cy="56.6" r="3.43"/><path class="cls-17" d="m15.48,97.3c-.74,1.96-.52,4.3.73,5.97.32.43.72.83,1.2,1.07.36.18.75.28,1.14.37.82.18,1.69.3,2.5.06s1.54-.9,1.61-1.74-.75-1.7-1.56-1.48c.46-.21,1.01-.6.85-1.08-.2-.63-1.24-.38-1.7-.85.31-.31.57-.66.78-1.05.07-.13.14-.27.13-.42,0-.29-.28-.52-.56-.57s-.58.02-.86.1c.2-.84.39-1.69.59-2.53.1-.41.19-.85.06-1.25-.27-.84-1.42-1.11-2.23-.76-1.67.73-2.11,2.64-2.68,4.17Z"/><path class="cls-3" d="m77.91,62.09c1.06-.39,2.21-.07,2.81.73.22.29.34.61.4.93"/></g></svg>