<?xml version="1.0" encoding="UTF-8"?><svg id="Layer_2" xmlns="http://www.w3.org/2000/svg" width="38.36mm" height="52.92mm" viewBox="0 0 108.74 150.02"><defs><style>.cls-1{fill:#f68b1f;}.cls-1,.cls-2,.cls-3,.cls-4,.cls-5,.cls-6,.cls-7,.cls-8,.cls-9{stroke-miterlimit:10;}.cls-1,.cls-2,.cls-8,.cls-9{stroke-width:.5px;}.cls-1,.cls-9{stroke:#a76427;}.cls-2{fill:#aaa8a8;stroke:#5d5d5c;}.cls-3{stroke:#543923;}.cls-3,.cls-5,.cls-7,.cls-8,.cls-9{fill:none;}.cls-3,.cls-6{stroke-width:.75px;}.cls-4{fill:#5d5d5c;stroke:gray;}.cls-5{stroke:#cbb1a0;}.cls-6{fill:#874f31;stroke:#fff;}.cls-10{fill:#fab59d;}.cls-10,.cls-11,.cls-12,.cls-13,.cls-14,.cls-15,.cls-16,.cls-17,.cls-18,.cls-19,.cls-20,.cls-21,.cls-22,.cls-23{stroke-width:0px;}.cls-11{fill:#808285;}.cls-12{fill:#887973;}.cls-13{fill:#231f20;}.cls-14{fill:#cfcfd1;}.cls-15{fill:#d3ad8f;}.cls-16{fill:#d9d9d6;}.cls-17{fill:#cdbeb1;}.cls-18{fill:#938570;}.cls-19{fill:#ba9a78;}.cls-20{fill:#fee4d5;}.cls-21{fill:#ee7e55;}.cls-22{fill:#f3d4c4;}.cls-23{fill:#6a6256;}.cls-7{stroke-width:.25px;}.cls-7,.cls-8{stroke:#231f20;}</style></defs><g id="Layer_1-2"><path class="cls-22" d="m26.88,124.95c-.16,2.17-.32,4.33-.48,6.5-.2,2.65.36,6.26,3.01,6.49,2.16.19,3.56-2.22,4.11-4.31.86-3.25,1.06-6.68.57-10.01-2.13-.08-4.53-.06-6.66.12-.33.03-.7.08-.93.32s.05.81.38.89Z"/><path class="cls-22" d="m42.79,124.66c-.16,2.17-.32,4.33-.48,6.5-.2,2.65.36,6.26,3.01,6.49,2.16.19,3.56-2.22,4.11-4.31.86-3.25,1.06-6.68.57-10.01-2.13-.08-4.53-.06-6.66.12-.33.03-.7.08-.93.32s.05.81.38.89Z"/><path class="cls-18" d="m15.66,105.09c-.87,2.31-1.91,5.06-2.67,8.86-.6,3.03-.92,6.13-.93,9.22,7.68,1.55,17.27,2.82,28.31,2.79,10.94-.03,20.45-1.33,28.08-2.89-.58-4.47-1.51-9.56-3.02-15.08-1.38-5.07-2.99-9.56-4.61-13.43-13.61.41-27.22.83-40.83,1.24-2.01,3.58-3.39,6.79-4.34,9.29Z"/><path class="cls-11" d="m75.89,148.01c.63.19,1.27.39,1.9.58.74.12,1.75.14,2.76-.36.54-.27.86-.57,1.91-1.52.76-.68,1.54-1.34,2.29-2.04,2.12-1.97,5.48-5.1,7.76-6.73.24-.17.89-.63,1.51-1.47.16-.22.64-.9,1-1.94.33-.93.43-1.78.46-2.38-.75-6.05-1.51-12.09-2.26-18.14-.16-.63-.58-1.97-1.66-3.17-.95-1.07-1.97-1.52-2.5-1.72-2.09-.94-4.19-1.92-6.32-2.92-2.4-1.13-4.75-2.27-7.07-3.41-1.88-.46-2.99.03-3.54.36-.29.18-.57.41-1.11.86-.84.7-1.5,1.32-1.94,1.76-1.69,1.44-3.4,2.94-5.13,4.5-1.74,1.57-3.43,3.13-5.07,4.68-.22.24-.52.63-.78,1.16-.84,1.72-.55,3.56-.44,4.37.36,2.55.91,7.73,1.72,14.61.02.7.14,1.95.73,3.32.66,1.52,1.58,2.44,2.08,2.87,2.66,1.29,5.33,2.6,8.01,3.92,1.9.93,3.78,1.87,5.67,2.8Z"/><path class="cls-6" d="m78.91,145.31c.17-.03.33-.07.47-.15.15-.07.33-.23,1.06-.89l.22-.2c.32-.29.64-.57.97-.85.45-.39.88-.77,1.29-1.15,2.24-2.08,5.62-5.23,8.05-6.97h.02c.18-.14.5-.37.82-.8.1-.13.34-.5.54-1.05.12-.33.2-.69.23-1.05l-2.18-17.49c-.13-.44-.38-1-.84-1.51-.48-.53-.99-.79-1.34-.92l-.1-.04-.1-.04c-2.12-.96-4.26-1.95-6.36-2.94-2.27-1.07-4.56-2.18-6.82-3.29-.35-.06-.66-.08-.92-.04-.17.03-.31.07-.42.14-.13.08-.37.28-.79.63-.6.5-1.19,1.03-1.74,1.58l-.08.08-.09.07c-1.7,1.45-3.41,2.95-5.08,4.45-1.64,1.48-3.29,3-4.9,4.52-.08.11-.16.22-.21.33-.33.68-.2,1.61-.12,2.17v.04c.24,1.66.55,4.38.95,7.82.23,2.04.5,4.35.8,6.89l.02.17v.17c.02.47.1,1.18.43,1.94.28.65.65,1.13.97,1.45,2.54,1.23,5.12,2.49,7.65,3.74,1.8.89,3.64,1.8,5.48,2.71l1.5.46c.22.03.42.02.6,0Z"/><ellipse class="cls-4" cx="76.34" cy="125.81" rx="4.9" ry="5.65" transform="translate(-4.43 2.8) rotate(-2.04)"/><ellipse class="cls-2" cx="73.66" cy="103.79" rx=".5" ry=".58" transform="translate(-3.65 2.69) rotate(-2.04)"/><ellipse class="cls-2" cx="91.56" cy="112.3" rx=".5" ry=".58" transform="translate(-3.94 3.33) rotate(-2.04)"/><ellipse class="cls-2" cx="85.67" cy="108.64" rx=".5" ry=".58" transform="translate(-3.82 3.12) rotate(-2.04)"/><ellipse class="cls-2" cx="79.88" cy="106.07" rx=".5" ry=".58" transform="translate(-3.73 2.91) rotate(-2.04)"/><ellipse class="cls-2" cx="94.05" cy="134.58" rx=".5" ry=".58" transform="translate(-4.73 3.44) rotate(-2.04)"/><ellipse class="cls-2" cx="93.82" cy="126.98" rx=".5" ry=".58" transform="translate(-4.46 3.42) rotate(-2.04)"/><ellipse class="cls-2" cx="92.89" cy="119.21" rx=".5" ry=".58" transform="translate(-4.19 3.38) rotate(-2.04)"/><ellipse class="cls-2" cx="73.09" cy="145.61" rx=".5" ry=".58" transform="translate(-5.14 2.7) rotate(-2.04)"/><ellipse class="cls-2" cx="67.17" cy="142.39" rx=".5" ry=".58" transform="translate(-5.03 2.48) rotate(-2.04)"/><ellipse class="cls-2" cx="62.01" cy="139.3" rx=".5" ry=".58" transform="translate(-4.92 2.3) rotate(-2.04)"/><ellipse class="cls-2" cx="60.18" cy="132.52" rx=".5" ry=".58" transform="translate(-4.68 2.23) rotate(-2.04)"/><ellipse class="cls-2" cx="59.19" cy="124.19" rx=".5" ry=".58" transform="translate(-4.39 2.19) rotate(-2.04)"/><ellipse class="cls-2" cx="58.9" cy="117.54" rx=".5" ry=".58" transform="translate(-4.15 2.17) rotate(-2.04)"/><ellipse class="cls-2" cx="68.81" cy="107.4" rx=".5" ry=".58" transform="translate(-3.78 2.52) rotate(-2.04)"/><ellipse class="cls-2" cx="64.03" cy="111.88" rx=".5" ry=".58" transform="translate(-3.94 2.35) rotate(-2.04)"/><ellipse class="cls-2" cx="89.4" cy="139.12" rx=".5" ry=".58" transform="translate(-4.9 3.27) rotate(-2.04)"/><ellipse class="cls-2" cx="85.2" cy="143.02" rx=".5" ry=".58" transform="translate(-5.04 3.13) rotate(-2.04)"/><ellipse class="cls-2" cx="107.99" cy="148.32" rx=".5" ry=".58" transform="translate(-5.22 3.94) rotate(-2.04)"/><path class="cls-20" d="m70.24,104.63c.18-.13,1.02-.74,2.15-.57.15.02,1.49.25,1.79,1.11.29.83-.25,1.69-.48,2.53-.12.45.03,1.13.5,1.08.26-.03.42-.29.53-.53.24-.51.42-1.05.56-1.59.21.48.81.74,1.31.58s.82-.73.73-1.24c.18.46.76.72,1.23.56.47-.17.75-.73.6-1.21.51.29,1.13-.34,1.08-.92-.05-.58-.48-1.04-.88-1.46-1.88-1.99-3.44-4.29-4.59-6.77-1.37.53-2.79.79-4.18,1.21.05.61.23,1.19.4,1.79.3,1.07.32,1.64.29,1.87-.14,1.31-1.15,1.76-1.08,3.15,0,.18.03.33.05.42Z"/><path class="cls-20" d="m32.47,71.22c-.01-1.73-.02-3.47-.04-5.2,3.55-.63,7.37-1.32,10.92-1.96.11,2.15.23,4.3.34,6.45-4.28.52-6.94.18-11.22.7Z"/><path class="cls-1" d="m80.34,78.56c-.04-.83-.22-3.9-2.32-6.59-1.67-2.14-2.95-2.21-3.28-3.77-.21-.98.18-1.98.19-2.98s-.67-2.19-1.66-2.05c.28-1.06.55-2.17.26-3.23-.29-1.05-1.37-1.97-2.43-1.67.15-.25,1.16-2,.46-4.12-.68-2.06-2.45-2.87-2.73-2.99.15-.36,1-2.41.02-4.54-.93-2.02-3.12-3.31-5.55-3.23-1.08,1.8-2.05,4.18-1.81,6.26.24,2.08,1.6,4.11,3.6,4.72-.79,1.01-.96,2.47-.43,3.64.53,1.17,1.75,1.99,3.04,2.06.4,1.48-.48,3.22.33,4.52.42.68,1.19,1.03,1.88,1.44,2.85,1.68,4.74,4.89,4.82,8.2.02.67-.03,1.36.21,1.98.21.57.65,1.03,1.09,1.46,1.25,1.2,2.66,2.23,4.18,3.05.07-.5.14-1.24.1-2.13Z"/><path class="cls-1" d="m8.32,49.52c-.05.34-.39,1.48-.2,2.99.11.9.36,1.62.57,2.12-.17,0-1.33-.05-2.07.82-.55.65-.52,1.42-.52,1.88,0,.92.18,1.97.97,2.44-2.49,1.04-3.52,4.55-2.01,6.78-1.26.67-2.12,2.06-2.15,3.49-.05,2.04,1.41,4.17.5,5.99-.39.78-1.13,1.3-1.7,1.95-1.18,1.36-1.57,3.28-1.44,5.08s.74,3.53,1.35,5.24c-.21-1.39,1.06-2.49,1.88-3.64,2.12-2.96,1.39-7.18,3.12-10.39.68-1.26,1.74-2.37,2.03-3.77.17-.82.04-1.69-.35-2.43,2.42-.7,3.97-3.54,3.26-5.95,1.72-1.23,1.98-3.63,2.1-5.74,1.13.43,2.14-.93,2.36-2.12.45-2.48-.68-5.09-2.58-6.67-2.38-1.99-4.68-1.29-5.12,1.95Z"/><path class="cls-3" d="m6.16,75.94c-.68-.38-1.42-.68-2.18-.88-.24-.06-.5-.11-.72-.01s-.36.42-.19.6c1.12.46,2.32.71,3.53.73,0-.25,0-.49,0-.74-.72-.14-1.45-.29-2.17-.43-.44-.09-.92-.17-1.32.03s-.6.83-.25,1.11c.1.08.22.12.33.15.58.19,1.16.37,1.75.56.3.1.63.19.92.07s.44-.57.18-.75"/><path class="cls-9" d="m13.33,47.56c-.3,2.91-.7,6.06-2.68,8.17"/><path class="cls-9" d="m12.28,55.05c-1.19-.06-2.16.94-2.78,1.97-1.53,2.53-.63,5.51-1.98,8.05-1.62,3.06-2.51,6.45-2.51,9.92"/><path class="cls-3" d="m75.35,68.69c-.77.12-1.53.35-2.25.67-.22.1-.46.22-.57.44s-.02.55.22.59c1.16-.34,2.26-.89,3.22-1.62-.15-.19-.3-.39-.46-.58-.66.34-1.31.67-1.97,1.01-.4.21-.83.44-1.02.85s.04,1.02.49,1.02c.12,0,.24-.04.36-.09.57-.22,1.14-.43,1.72-.65.29-.11.61-.24.76-.52s-.02-.72-.33-.7"/><path class="cls-9" d="m63.01,46.45c.46-.02.84.33,1.14.67,1.33,1.48,2.33,3.25,2.92,5.15"/><path class="cls-9" d="m74.09,68.22c-.41-1.09-1.21-1.94-1.9-2.86-1.39-1.86-2.34-4.07-2.76-6.4-.19-1.05-.27-2.13-.67-3.12-.41-1-1.11-1.83-1.68-2.73s-1.04-1.97-.87-3.05"/><path class="cls-20" d="m12.03,32.85c0,2.5,0,5.03,0,7.52-1.14.35-2.21,1.03-2.83,2.05s-.71,2.39-.06,3.39c.61.94,1.71,1.4,2.75,1.8.31.12.72.09,1.03.21.01,3.2,1.54,6.22,3.5,8.75,6.78,8.77,19.34,12.58,29.85,9.05,2.26-.76,4.4-1.81,6.54-2.86,1.45-.71,2.92-1.44,4.15-2.48,1.75-1.48,2.93-3.53,3.9-5.6,1.63-3.48,2.81-7.17,2.56-11,.86-.15,1.71-.3,2.57-.45.61-.11,1.25-.22,1.75-.59.83-.61,1.07-1.78.86-2.79s-.79-1.89-1.36-2.75c-.17-.25-.35-.52-.63-.63-.27-.1-.56-.05-.84,0-.9.18-1.86.29-2.76.47-.15-1.81-.19-3.63-.1-5.45-14.98.05-30.14-.11-45.12-.06-1.96,0-4.17.29-5.77,1.42Z"/><path class="cls-8" d="m46.24,54.56c-.12-.18-1.26.44-3.16,1.18-1.83.71-2.83,1.1-4.03,1.31-.58.1-3.26.5-6.1-.68-2.16-.9-3.45-2.31-3.64-2.1-.18.2.86,1.43.96,1.54.24.28.71.8,1.39,1.3,2.57,1.9,5.49,2.02,5.49,2.02.45.02,2.37.07,4.55-.94,1.33-.61,2.27-1.39,2.84-1.94,1.48-1.21,1.76-1.59,1.69-1.7Z"/><path class="cls-7" d="m37.95,46.52c-1.06-.14-2.05.38-2.45,1.24-.38.82-.12,1.73.32,2.27.74.92,2.26,1.18,3.63.45"/><circle class="cls-13" cx="44.79" cy="41.42" r="1.46"/><circle class="cls-13" cx="30.19" cy="41.42" r="1.46"/><ellipse class="cls-10" cx="23.19" cy="49.17" rx="3.05" ry="3.61" transform="translate(-31.11 51.8) rotate(-67.52)"/><ellipse class="cls-10" cx="53.26" cy="49.45" rx="3.61" ry="3.05" transform="translate(-14.86 24.13) rotate(-22.48)"/><path class="cls-5" d="m66.57,39.9c-.12-.38-.57-.53-.97-.59-.35-.05-.74-.07-1.01.16-.18.15-.26.39-.29.61-.11.7.19,1.45.76,1.88"/><path class="cls-5" d="m12.07,45.33c.36-.18.43-.65.43-1.05,0-.35-.04-.75-.31-.97-.18-.15-.42-.2-.65-.19-.71,0-1.4.42-1.74,1.04"/><path class="cls-1" d="m10.41,41.42c2.19-.98,4.38-1.96,6.56-2.94,3.8-1.7,7.68-3.45,10.75-6.26-5.81.27-12.05.94-17.84,1.53-.47.05-.99.12-1.3.47-.3.34-.32.83-.31,1.28.04,2.28,1.32,3.78,2.14,5.91Z"/><path class="cls-1" d="m65.91,36.48c-.28-1.03-1.23-1.77-2.25-2.09s-2.11-.28-3.18-.24c-3.3.12-6.94-.12-10.16.48,2.12,1.62,5.05,2.4,7.69,2.69.68.07,8.1-.14,7.91-.83Z"/><path class="cls-20" d="m7.39,108.57c-.12.41-.25.85-.14,1.27.11.42.56.78.96.63.3-.11.45-.43.56-.73.41-1.08.68-2.22.8-3.37-.01,1.04-.02,2.07-.03,3.11,0,.48.03,1.05.43,1.31.17-.04.42-.12.6-.33.26-.3.24-.69.24-1.19,0-.42,0-1.04.05-1.83.4,1,.62,1.78.75,2.33.07.29.15.68.45.82.27.12.67.02.84-.22.15-.22.05-.57-.15-1.26-.4-1.35-.48-1.63-.44-1.65.07-.03.49.56.82,1.22.38.75.44,1.17.84,1.32.19.07.46.1.62-.04.12-.1.18-.28.12-.79-.09-.79-.31-1.26-.31-1.26-.6-1.4-1.14-2.66-.92-2.83.16-.12.56.42,1.52.72.43.14.8.17,1.05.18.29-.07.64-.19.71-.44.13-.5-.96-1.17-1.26-1.38-1.02-.71-2.09-2.45-2.28-6.92-.99.04-1.98.08-2.97.11-.73.03-1.16,4.53-1.34,5.33-.44,1.98-.94,3.94-1.52,5.89Z"/><path class="cls-19" d="m10.5,29.08c-.04-1.11,0-2.66.32-4.46.26-1.47,1.25-6.56,5.33-10.67,2.84-2.86,5.81-3.86,9.43-5.08,1.23-.42,6.91-2.26,14.68-1.78,2.86.18,6.63.44,11.11,2.3,2.77,1.15,7.01,2.9,10.32,7.33,2.93,3.92,3.71,8.02,3.95,10.36-7.25.18-14.89.12-22.14.3-11.02.27-22.09.13-33,1.7Z"/><path class="cls-17" d="m67.93,25.32c-.07,3.3-.15,6.6-.22,9.9-19.84-.18-39.68-.36-59.52-.54.15-2.98.31-5.95.46-8.93,7-.16,13.99-.31,20.99-.47-.07-6.24-.13-12.48-.2-18.72,3.61-.14,7.22-.28,10.83-.42.08,6.41.16,12.81.24,19.22,9.14-.01,18.29-.03,27.43-.04Z"/><circle class="cls-12" cx="34.8" cy="10.5" r="1.19"/><circle class="cls-12" cx="35" cy="16.89" r="1.19"/><circle class="cls-12" cx="34.8" cy="23.8" r="1.19"/><circle class="cls-12" cx="34.8" cy="29.97" r="1.19"/><circle class="cls-12" cx="42.02" cy="29.97" r="1.19"/><circle class="cls-12" cx="49.79" cy="29.97" r="1.19"/><circle class="cls-12" cx="12.01" cy="29.97" r="1.19"/><circle class="cls-12" cx="19.23" cy="29.97" r="1.19"/><circle class="cls-12" cx="27" cy="29.97" r="1.19"/><circle class="cls-12" cx="56.68" cy="30.27" r="1.19"/><circle class="cls-12" cx="64.45" cy="30.27" r="1.19"/><path class="cls-14" d="m18.46,16.58c-2.85,1.02-6.33-2.39-7.81-4.36C6.89,7.26,7.36.33,8.49.01c.76-.21.99,2.77,4.28,5.32,2.33,1.8,4.24,1.89,6.93,4.57,1.04,1.04,1.44,1.71,1.52,2.48.19,1.73-1.2,3.64-2.77,4.2Z"/><path class="cls-14" d="m57.66,16.58c2.85,1.02,6.33-2.39,7.81-4.36,3.75-4.96,3.29-11.89,2.15-12.21-.76-.21-.99,2.77-4.28,5.32-2.33,1.8-4.24,1.89-6.93,4.57-1.04,1.04-1.44,1.71-1.52,2.48-.19,1.73,1.2,3.64,2.77,4.2Z"/><path class="cls-16" d="m14.34,99.83c.26-1.8.73-4.35,1.59-7.35.9-3.12,1.35-4.67,2.16-5.95,3.23-5.05,10.26-6.04,12.39-6.13,3.8-.16,7.54.96,11.33,1.16,6.29.34,13.08-1.75,18.64,1.22,5.49,2.94,7.56,9.63,9.12,15.66,2.08-.52,4.17-1.05,6.25-1.57-1.27-3.59-8.65-23.39-25.54-27.41-1.95-.46-4.18-.75-6.71-.7-.69.57-1.71,1.24-3.08,1.6-4.11,1.09-7.61-1.66-8.11-2.05-.99.05-2.55.2-4.34.77-6.33,1.99-9.7,7.22-14.42,14.57-2.9,4.51-4.02,7.36-4.67,10.03-.5,2.04-.68,3.8-.75,5.06,2.04.36,4.08.72,6.13,1.08Z"/><path class="cls-21" d="m23.11,81.44c-.65.94-1.44,1.64-1.44,1.64-.53.47-1.03.79-1.38,1-.24,2.31-.48,4.62-.72,6.94,6.14.56,13.21.84,21.01.48,7.37-.34,14.03-1.18,19.84-2.22-.42-2.3-.84-4.59-1.25-6.89-1.61-1.62-4.38-4.95-4.99-9.71-.12-.94-.14-1.83-.1-2.65-.47-.11-.94-.23-1.42-.35-1.69-.42-3.33-.88-4.92-1.36.28,3.64-1.7,7.01-4.83,8.34-4.07,1.72-8.2-.8-9.68-2.78-.4-.54-1.18-1.8-1.79-3.42-.32-.86-.51-1.6-.63-2.14-2.07.66-4.14,1.32-6.22,1.99.28,5.7-.65,9.92-1.49,11.13Z"/><path class="cls-15" d="m19.71,96.14c4.83.63,10.26,1.05,16.18,1.06,9.69,0,18.2-1.13,25.19-2.56l-.62-5.59c-6.66,1.07-16.98,2.52-24.37,2.43-.88-.01-5.23-.09-10.62-.25-2.48-.07-4.53-.15-5.9-.2.05,1.71.09,3.41.14,5.12Z"/><path class="cls-23" d="m25.81,129.55c.98,4.03,1.22,8.24.71,12.35-.06.51-.13,1.04.06,1.51.16.39.48.7.79.98,1.78,1.62,3.64,3.17,5.56,4.62.51.38,1.04.77,1.66.93s1.35.04,1.76-.45c.55-.66.3-1.69-.22-2.36s-1.26-1.16-1.81-1.82c-1.21-1.46-1.27-3.53-1.21-5.42.05-1.73.16-3.46.37-5.18.19-1.55,1.02-3.55.89-5.04-2.8-.3-5.74-.09-8.56-.13Z"/><path class="cls-23" d="m42.97,138.35c.2.84.45,1.69.86,2.45.34.63.79,1.2,1.25,1.75,3.39,4.09,5.25,7.69,7.28,7.3.81-.15,1.44-.92,1.61-1.58.24-.91-.33-1.69-1.97-4.19-.54-.82-1.15-1.6-1.51-2.51-.88-2.21-.11-4.68.09-7.04.12-1.38.04-2.77-.23-4.12-.12-.62-7.44-1.13-8.02-.46-.59.67-.15,2.89-.09,3.69.12,1.59.37,3.16.74,4.71Z"/></g></svg>