<?xml version="1.0" encoding="UTF-8"?><svg id="Layer_2" xmlns="http://www.w3.org/2000/svg" width="75.2mm" height="83.58mm" viewBox="0 0 213.17 236.92"><defs><style>.cls-1{stroke-width:3px;}.cls-1,.cls-2,.cls-3,.cls-4,.cls-5{stroke-miterlimit:10;}.cls-1,.cls-2,.cls-5{stroke:#fff;}.cls-1,.cls-5{fill:none;}.cls-2{fill:#00b261;stroke-width:4px;}.cls-3{fill:#aaa8a8;stroke:#5d5d5c;}.cls-4{fill:#5d5d5c;stroke:gray;}.cls-6{fill:#808285;}.cls-6,.cls-7{stroke-width:0px;}.cls-7{fill:#fff;}</style></defs><g id="Layer_1-2"><path class="cls-6" d="m125.59,231.32c-3.57,1.45-7.14,2.9-10.72,4.35-4.25,1.16-10.1,2.01-16.39.22-3.34-.95-5.41-2.25-12.21-6.25-4.92-2.9-9.95-5.62-14.82-8.6-13.76-8.41-35.56-21.73-50.04-28.26-1.55-.7-5.64-2.5-9.85-6.31-1.08-.98-4.35-4.06-7.22-9.07-2.56-4.47-3.76-8.67-4.35-11.72.18-31.17.36-62.33.54-93.5.5-3.32,2.03-10.38,7.49-17.29,4.83-6.11,10.43-9.17,13.43-10.56,11.53-6.34,23.16-12.83,34.88-19.5,13.21-7.51,26.18-15.03,38.92-22.54,10.67-3.71,17.51-2.1,20.93-.81,1.83.69,3.59,1.63,7.11,3.52,5.39,2.9,9.67,5.58,12.56,7.48,10.88,6.04,21.93,12.36,33.13,18.95,11.28,6.64,22.24,13.29,32.88,19.91,1.45,1.08,3.46,2.79,5.35,5.28,6.08,8.06,5.72,17.61,5.61,21.78-.34,13.2.07,39.84.13,75.26.37,3.57.55,9.97-1.96,17.36-2.8,8.2-7.53,13.5-10.16,16.07-14.66,8.52-29.36,17.12-44.1,25.8-10.43,6.14-20.81,12.28-31.15,18.42Z"/><path class="cls-2" d="m104.33,218.24c-1.03,0-1.97-.12-2.88-.38-.91-.26-2.1-.94-6.83-3.72l-1.41-.83c-2.07-1.22-4.16-2.41-6.25-3.6-2.91-1.66-5.66-3.22-8.32-4.85-14.52-8.88-36.46-22.29-51.92-29.26l-.1-.05c-1.11-.5-3.18-1.43-5.33-3.37-.66-.6-2.36-2.27-3.87-4.91-.92-1.61-1.62-3.32-2.1-5.12l.52-90.14c.47-2.3,1.52-5.34,3.83-8.26,2.41-3.04,5.25-4.76,7.21-5.66l.55-.25.53-.29c11.7-6.43,23.5-13.03,35.09-19.62,12.5-7.11,25.12-14.41,37.54-21.73,1.98-.58,3.81-.89,5.34-.89,1.02,0,1.88.13,2.56.39.8.3,2.37,1.14,5.08,2.6,3.87,2.08,7.66,4.34,11.26,6.71l.53.35.56.31c10.95,6.08,21.97,12.38,32.77,18.74,10.64,6.26,21.33,12.73,31.79,19.24.57.47,1.07.98,1.48,1.53,2.4,3.18,2.28,8.01,2.2,10.89v.23c-.23,8.57-.14,22.56-.04,40.26.06,10.48.13,22.37.16,35.47v.86s.09.85.09.85c.24,2.38.24,6.06-1.14,10.13-1.2,3.51-3.04,6.19-4.68,8.06-14,8.14-28.15,16.43-42.11,24.64-9.92,5.84-20.04,11.82-30.1,17.8l-8.46,3.44c-1.25.29-2.44.43-3.53.43Z"/><circle class="cls-4" cx="106.59" cy="118.46" r="28.86"/><path class="cls-7" d="m13.61,124.79c9.91-26.87,34.21-47.03,61.76-53.82-19.97,6.01-37.95,18.96-49.21,36.57-3.71,5.8-6.68,12.05-8.77,18.56l-3.78-1.31h0Z"/><path class="cls-1" d="m23.82,91.21c-2.08-6.01-1.82-12.54.22-17.65.26-.65,1.21-3.27,3.49-5.97,3.2-3.79,7.34-6.79,11.94-8.65,6.85-2.77,14.43-2.98,21.81-3.01,1.73,0,7.09.11,11.9,1,15.25,2.82,26.45,13.97,31.61,19.9-2.88.27-6.75.88-11.13,2.3-2.62.85-8.68,2.86-14.25,7.2-9.42,7.33-6.94,13.13-15.27,18.51-6.67,4.31-13.73,4.12-15.88,4.04-10.53-.42-17.44-6.57-19.33-8.37"/><path class="cls-5" d="m34.86,93.47c-.88-4.42-1.47-10.83.3-17.96,1.11-4.47,2.74-7.59,3.22-8.47,2.27-4.21,4.97-7.14,6.93-8.96"/><path class="cls-5" d="m49.28,82.24c.02-2.28.31-5.72,1.68-9.63.64-1.81,1.91-5.33,4.89-8.76,4.34-5,9.76-6.87,12.44-7.59"/><path class="cls-5" d="m35.97,94.44c3.71,1.47,9.6,3.29,17.01,3.45,8.71.18,15.56-2.01,19.49-3.61"/><path class="cls-5" d="m50.3,82.08c2.82.97,6.21,1.89,10.09,2.47,5.72.85,10.12.61,11.35.53,3.97-.26,7.42-.95,10.23-1.73"/><path class="cls-7" d="m147.48,35.35c16.76,23.22,19.92,54.64,10.17,81.28,6.16-19.92,5.46-42.07-2.86-61.24-2.74-6.32-6.27-12.28-10.5-17.64,0,0,3.2-2.4,3.2-2.4h0Z"/><path class="cls-1" d="m169.65,62.57c6.14,1.63,11.42,5.49,14.52,10.04.39.58,2.04,2.83,3.01,6.23,1.36,4.77,1.54,9.88.51,14.74-1.52,7.23-5.58,13.63-9.68,19.78-.96,1.43-4.05,5.82-7.48,9.32-10.85,11.08-26.35,14.14-34.16,15.11,1.38-2.55,3.04-6.09,4.31-10.52.76-2.64,2.47-8.8,1.98-15.84-.82-11.91-7.02-13.09-6.83-23.01.15-7.94,4.25-13.69,5.51-15.43,6.22-8.5,15.19-10.8,17.74-11.36"/><path class="cls-5" d="m161.61,70.46c4.16,1.74,9.8,4.82,14.73,10.28,3.09,3.42,4.76,6.51,5.23,7.4,2.22,4.23,3.15,8.11,3.57,10.75"/><path class="cls-5" d="m162.86,88.7c1.88,1.29,4.58,3.45,7.05,6.77,1.15,1.54,3.35,4.56,4.54,8.95,1.72,6.39.25,11.93-.65,14.55"/><path class="cls-5" d="m160.18,70.84c-3.29,2.26-8.09,6.13-12.36,12.19-5.02,7.13-7.02,14.03-7.89,18.19"/><path class="cls-5" d="m162.43,89.64c-2.38,1.79-5.04,4.09-7.69,6.99-3.9,4.27-6.16,8.06-6.78,9.12-2,3.44-3.35,6.69-4.27,9.45"/><path class="cls-7" d="m153.02,194.61c-28.53,2.41-57.09-11.06-74.92-33.13,13.91,15.54,33.25,26.34,53.97,29.08,6.83.9,13.75.95,20.53.08,0,0,.42,3.98.42,3.98h0Z"/><path class="cls-1" d="m118.28,199.6c-4.56,4.43-10.59,6.96-16.08,7.28-.7.04-3.47.29-6.89-.63-4.79-1.29-9.26-3.77-12.9-7.15-5.41-5.03-8.81-11.8-11.97-18.48-.74-1.56-2.9-6.47-4.14-11.21-3.91-15.01,1.45-29.87,4.63-37.07,1.47,2.5,3.66,5.74,6.8,9.11,1.88,2.01,6.27,6.65,12.56,9.86,10.63,5.43,14.84.73,23.24,5.99,6.73,4.22,9.55,10.69,10.38,12.67,4.08,9.71,1.44,18.58.61,21.05"/><path class="cls-5" d="m115.65,188.64c-3.63,2.67-9.18,5.92-16.39,7.34-4.52.89-8.03.73-9.04.68-4.77-.27-8.58-1.48-11.05-2.48"/><path class="cls-5" d="m99.37,180.33c-2.07.95-5.31,2.15-9.44,2.56-1.91.19-5.64.53-10.01-.72-6.37-1.82-10.36-5.93-12.14-8.05"/><path class="cls-5" d="m116.05,187.22c-.24-3.98-1.09-10.09-4.09-16.87-3.53-7.97-8.41-13.24-11.53-16.13"/><path class="cls-5" d="m98.79,179.48c-.31-2.97-.91-6.42-2.03-10.19-1.65-5.54-3.74-9.43-4.33-10.51-1.92-3.49-4.01-6.32-5.9-8.53"/><circle class="cls-3" cx="106.59" cy="6.15" r="3.08"/><circle class="cls-3" cx="106.59" cy="229.54" r="3.08"/><circle class="cls-3" cx="10.68" cy="63.16" r="3.08"/><circle class="cls-3" cx="40.21" cy="42.08" r="3.08"/><circle class="cls-3" cx="72.47" cy="22.85" r="3.08"/><circle class="cls-3" cx="12.25" cy="176.4" r="3.08"/><circle class="cls-3" cx="6.84" cy="141.7" r="3.08"/><circle class="cls-3" cx="7.6" cy="101.76" r="3.08"/><circle class="cls-3" cx="140.28" cy="211.73" r="3.08"/><circle class="cls-3" cx="170.68" cy="194.13" r="3.08"/><circle class="cls-3" cx="200.91" cy="175.53" r="3.08"/><circle class="cls-3" cx="205.78" cy="141.69" r="3.08"/><circle class="cls-3" cx="204.06" cy="101.85" r="3.08"/><circle class="cls-3" cx="202.19" cy="63.68" r="3.08"/><circle class="cls-3" cx="138.52" cy="21.29" r="3.08"/><circle class="cls-3" cx="170.68" cy="41.06" r="3.08"/><circle class="cls-3" cx="39.39" cy="194.12" r="3.08"/><circle class="cls-3" cx="71.34" cy="212.23" r="3.08"/></g></svg>