<?xml version="1.0" encoding="UTF-8"?><svg id="Layer_1" xmlns="http://www.w3.org/2000/svg" width="700" height="418" xmlns:xlink="http://www.w3.org/1999/xlink" viewBox="0 0 700 418"><defs><style>.cls-1{clip-path:url(#clippath);}.cls-2{fill:none;}.cls-2,.cls-3{stroke-width:0px;}.cls-4{clip-path:url(#clippath-1);}.cls-5{clip-path:url(#clippath-4);}.cls-6{clip-path:url(#clippath-3);}.cls-7{clip-path:url(#clippath-2);}.cls-3{fill:#6f9d6b;}</style><clipPath id="clippath"><rect class="cls-2" x=".09" y="41.92" width="699.91" height="169.48"/></clipPath><clipPath id="clippath-1"><rect class="cls-2" x="-19.6" y="63.76" width="611.7" height="251.51"/></clipPath><clipPath id="clippath-2"><rect class="cls-2" x="-33.82" y="64.13" width="611.7" height="520.57"/></clipPath><clipPath id="clippath-3"><rect class="cls-2" x="221.7" y="84.32" width="512.57" height="210.75" transform="translate(955.97 379.4) rotate(180)"/></clipPath><clipPath id="clippath-4"><rect class="cls-2" x="221.7" y="84.32" width="512.57" height="436.21" transform="translate(955.97 604.86) rotate(180)"/></clipPath></defs><g class="cls-1"><g class="cls-4"><g class="cls-7"><path class="cls-3" d="m-47.42,394.85c4.78-.95,9.36-1.72,13.76-2.32v-153.09c-3.29-.15-6.6-.39-9.94-.74-66.61-6.8-117.63-49.28-113.96-94.88,3.67-45.6,50.86-80.72,121.94-79.53,44.9.76,84.92,26.88,105.27,57.77,31.66-26.64,81.54-44.8,142.6-36.25,51.1,7.15,81.75,24.69,100.25,47.42,23.86-23.77,62.06-31.61,94.16-26.6,26.24,4.1,43.69,17.19,54.16,34.93,26.68-30.87,100.57-38.13,139.04-12.25,39.16,26.35,40.66,79.76,24.94,116.05-8.29,19.12-24.97,31.26-44.89,35.19v30.75h-1.98v94.9c49.42-6.33,92.76,19.64,97.49,58.93,4.82,40.05-15.72,76.93-65.66,88.95-41.48,9.99-101.14-3.77-129.38-29.95-22.47,21.09-55.98,37.98-99.81,46.64-55.92,11.04-124.89-2.4-166.68-29.82-29.92,29.68-89.11,41.32-135.56,18.65-13.14-6.41-24.41-14.16-33.82-22.84-13.58,21.25-35.88,38.32-69.2,44.97-71.84,14.33-131.26-24.06-138.93-72.76-7.67-48.7,44.36-99.79,116.2-114.12Z"/></g></g><g class="cls-6"><g class="cls-5"><path class="cls-3" d="m745.67,361.44c-4.01-.8-7.84-1.44-11.53-1.94v-128.28c2.75-.13,5.53-.33,8.33-.62,55.81-5.7,98.57-41.29,95.49-79.5-3.08-38.21-42.62-67.64-102.18-66.64-37.62.63-71.16,22.53-88.21,48.41-26.53-22.32-68.33-37.54-119.49-30.38-42.82,5.99-68.5,20.68-84,39.73-20-19.92-52-26.49-78.9-22.29-21.99,3.43-36.61,14.41-45.39,29.27-22.35-25.86-84.27-31.95-116.51-10.26-32.81,22.08-34.07,66.84-20.9,97.24,6.94,16.02,20.92,26.2,37.62,29.48v25.76h1.66v79.52c-41.41-5.3-77.72,16.45-81.69,49.38-4.04,33.56,13.17,64.46,55.02,74.54,34.76,8.37,84.75-3.16,108.41-25.1,18.83,17.67,46.91,31.83,83.63,39.08,46.86,9.25,104.65-2.01,139.67-24.99,25.07,24.87,74.67,34.63,113.59,15.63,11.01-5.37,20.46-11.87,28.34-19.14,11.38,17.81,30.07,32.11,57.99,37.68,60.2,12.01,109.99-20.16,116.41-60.97,6.42-40.81-37.17-83.62-97.37-95.63Z"/></g></g></g><rect class="cls-3" y="182.72" width="700" height="235.28"/></svg>