<?xml version="1.0" encoding="UTF-8"?><svg id="Layer_1" xmlns="http://www.w3.org/2000/svg" width="500" height="2611" xmlns:xlink="http://www.w3.org/1999/xlink" viewBox="0 0 500 2611"><defs><style>.cls-1{clip-path:url(#clippath);}.cls-2{fill:none;}.cls-2,.cls-3{stroke-width:0px;}.cls-3{fill:#6f9d6b;}</style><clipPath id="clippath"><rect class="cls-2" y="0" width="500" height="2611"/></clipPath></defs><g class="cls-1"><path class="cls-3" d="m542.77,276.49c-4.24-.75-8.3-1.36-12.21-1.82v-120.63c2.92-.12,5.86-.31,8.82-.58,59.09-5.36,104.34-38.83,101.08-74.76-3.26-35.93-45.12-63.61-108.16-62.67-39.83.59-75.33,21.18-93.38,45.52-28.09-20.99-72.33-35.3-126.49-28.57-45.33,5.63-72.51,19.45-88.92,37.36-21.17-18.73-55.05-24.91-83.53-20.96-23.28,3.23-38.75,13.55-48.04,27.52-23.66-24.32-89.21-30.05-123.33-9.65-34.73,20.76-36.07,62.85-22.12,91.44,7.35,15.07,22.15,24.64,39.82,27.73v24.23h1.75v74.78c-43.84-4.99-82.28,15.47-86.48,46.44-4.28,31.56,13.95,60.62,58.24,70.09,36.8,7.87,89.72-2.97,114.77-23.6,19.93,16.61,49.66,29.93,88.53,36.75,49.61,8.7,110.79-1.89,147.86-23.5,26.54,23.39,79.05,32.56,120.24,14.7,11.65-5.05,21.65-11.16,30-18,12.04,16.75,31.83,30.2,61.38,35.44,63.73,11.29,116.44-18.96,123.24-57.33,6.8-38.37-39.35-78.63-103.08-89.93Z"/><path class="cls-3" d="m542.55,2461.07c-4.24-.75-8.3-1.36-12.21-1.82v-120.63c2.92-.12,5.86-.31,8.82-.58,59.09-5.36,104.34-38.83,101.08-74.76-3.26-35.93-45.12-63.61-108.16-62.67-39.83.59-75.33,21.18-93.38,45.52-28.09-20.99-72.33-35.3-126.49-28.57-45.33,5.63-72.51,19.45-88.92,37.36-21.17-18.73-55.05-24.91-83.53-20.96-23.28,3.23-38.75,13.55-48.04,27.52-23.66-24.32-89.21-30.05-123.33-9.65-34.73,20.76-36.07,62.85-22.12,91.44,7.35,15.07,22.15,24.64,39.82,27.73v24.23h1.75v74.78c-43.84-4.99-82.28,15.47-86.48,46.44-4.28,31.56,13.95,60.62,58.24,70.09,36.8,7.87,89.72-2.97,114.77-23.6,19.93,16.61,49.66,29.93,88.53,36.75,49.61,8.7,110.79-1.89,147.86-23.5,26.54,23.39,79.05,32.56,120.24,14.7,11.65-5.05,21.65-11.16,30-18,12.04,16.75,31.83,30.2,61.38,35.44,63.73,11.29,116.44-18.96,123.24-57.33,6.8-38.37-39.35-78.63-103.08-89.93Z"/><rect class="cls-3" y="322" width="500" height="2058"/></g></svg>