<?xml version="1.0" encoding="UTF-8"?><svg id="Layer_1" xmlns="http://www.w3.org/2000/svg" width="500" height="655" xmlns:xlink="http://www.w3.org/1999/xlink" viewBox="0 0 500 655"><defs><style>.cls-1{clip-path:url(#clippath);}.cls-2{fill:none;}.cls-2,.cls-3{stroke-width:0px;}.cls-3{fill:#6f9d6b;}</style><clipPath id="clippath"><rect class="cls-2" y="25" width="500" height="655"/></clipPath></defs><g class="cls-1"><path class="cls-3" d="m547.92,553.19c-4.69-.83-9.19-1.5-13.51-2.02v-3.04c66.53,8.33,120.37-24.12,127.58-64.81,5.36-30.25-19-61.55-58.94-81.59,33.96-15.68,55.43-40.99,53.03-67.51-3.61-39.78-49.95-70.41-119.74-69.37-.66,0-1.32.03-1.97.05v-16.69c3.23-.13,6.48-.34,9.76-.64,65.41-5.93,115.51-42.98,111.9-82.76-3.61-39.78-49.95-70.41-119.74-69.37-44.09.66-83.39,23.45-103.38,50.39-31.09-23.24-80.07-39.08-140.03-31.62-50.18,6.24-80.27,21.53-98.44,41.36-23.43-20.74-46.51-34.93-88.48-32.28-29.69,1.88-46.89,24.07-57.18,39.54-26.19-26.93-98.76-33.26-136.53-10.68-38.45,22.98-39.92,69.58-24.49,101.23,8.14,16.68,24.52,27.27,44.08,30.69v26.82h1.94v1.74c-7.88,2.2-15.17,5.16-21.49,8.94-29.81,17.82-37.39,49.82-32.1,78.05-23.04,8.65-39.36,24.98-42.14,45.46-4.74,34.93,15.44,67.11,64.48,77.59,9.65,2.06,20.29,2.96,31.3,2.83v37.58c-48.53-5.52-91.08,17.13-95.73,51.4-4.74,34.93,15.44,67.11,64.48,77.59,40.73,8.71,97.75,15.93,127.05-26.13,22.06,18.39,36.64,38.31,78.83,49.24,67.76,17.57,138.76,1.88,182.85-34.57,45.6,44.26,101.23,42.87,135.3,24.88,12.43-6.56,21.79-20.97,31.03-28.54,13.33,18.54,52.95,49.73,86.17,50.73,72.82,2.19,110.68-32.49,118.21-74.97,7.53-42.48-43.56-87.05-114.11-99.55Z"/><rect class="cls-3" x="-.23" y="309.02" width="500" height="1153"/></g></svg>