<?xml version="1.0" encoding="UTF-8"?><svg id="Layer_1" xmlns="http://www.w3.org/2000/svg" width="500" height="1712" xmlns:xlink="http://www.w3.org/1999/xlink" viewBox="0 0 500 1712"><defs><style>.cls-1{clip-path:url(#clippath);}.cls-2{fill:none;}.cls-2,.cls-3{stroke-width:0px;}.cls-3{fill:#6f9d6b;}</style><clipPath id="clippath"><rect class="cls-2" y="0" width="500" height="1712"/></clipPath></defs><g class="cls-1"><path class="cls-3" d="m548.15,458.16c-4.69-.83-9.19-1.5-13.51-2.02v-3.04c66.53,8.33,120.37-24.12,127.58-64.81,5.36-30.25-19-61.55-58.94-81.59,33.96-15.68,55.43-40.99,53.03-67.51-3.61-39.78-49.95-70.41-119.74-69.37-.66,0-1.32.03-1.97.05v-16.69c3.23-.13,6.48-.34,9.76-.64,65.41-5.93,115.51-42.98,111.9-82.76C652.66,30,606.32-.63,536.53.41c-44.09.66-83.39,23.45-103.38,50.39-31.09-23.24-80.07-39.08-140.03-31.62-50.18,6.24-80.27,21.53-98.44,41.36-23.43-20.74-46.51-34.93-88.48-32.28-29.69,1.88-46.89,24.07-57.18,39.54-26.19-26.93-98.76-33.26-136.53-10.68-38.45,22.98-39.92,69.58-24.49,101.23,8.14,16.68,24.52,27.27,44.08,30.69v26.82h1.94v1.74c-7.88,2.2-15.17,5.16-21.49,8.94-29.81,17.82-37.39,49.82-32.1,78.05-23.04,8.65-39.36,24.98-42.14,45.46-4.74,34.93,15.44,67.11,64.48,77.59,9.65,2.06,20.29,2.96,31.3,2.83v37.58c-48.53-5.52-91.08,17.13-95.73,51.4-4.74,34.93,15.44,67.11,64.48,77.59,40.73,8.71,97.75,15.93,127.05-26.13,22.06,18.39,36.64,38.31,78.83,49.24,67.76,17.57,138.76,1.88,182.85-34.57,45.6,44.26,101.23,42.87,135.3,24.88,12.43-6.56,21.79-20.97,31.03-28.54,13.33,18.54,52.95,49.73,86.17,50.73,72.82,2.19,110.68-32.49,118.21-74.97,7.53-42.48-43.56-87.05-114.11-99.55Z"/><path class="cls-3" d="m535.91,1557.27c-4.17-.74-8.17-1.33-12.01-1.8v-2.7c59.14,7.4,107-21.44,113.41-57.61,4.76-26.89-16.89-54.72-52.39-72.53,30.19-13.94,49.28-36.44,47.14-60.01-3.21-35.36-44.4-62.6-106.44-61.67-.59,0-1.17.02-1.75.04v-14.83c2.87-.12,5.76-.31,8.68-.57,58.14-5.27,102.68-38.21,99.48-73.57-3.21-35.36-44.4-62.6-106.44-61.67-39.19.59-74.13,20.85-91.9,44.8-27.64-20.66-71.18-34.74-124.48-28.11-44.61,5.54-71.36,19.14-87.51,36.77-20.83-18.43-41.35-31.05-78.65-28.69-26.39,1.67-41.68,21.4-50.83,35.15-23.29-23.94-87.79-29.57-121.37-9.5-34.18,20.43-35.49,61.85-21.77,89.99,7.23,14.83,21.8,24.24,39.19,27.29v23.84h1.72v1.55c-7.01,1.95-13.49,4.59-19.1,7.94-26.5,15.84-33.24,44.29-28.54,69.39-20.48,7.69-34.99,22.2-37.46,40.41-4.21,31.05,13.72,59.66,57.32,68.98,8.58,1.83,18.04,2.63,27.82,2.52v33.41c-43.14-4.91-80.97,15.23-85.1,45.7-4.21,31.05,13.72,59.66,57.32,68.98,36.21,7.74,86.89,14.16,112.94-23.23,19.61,16.35,32.57,34.05,70.08,43.78,60.23,15.62,123.35,1.67,162.55-30.73,40.54,39.35,89.99,38.11,120.27,22.12,11.05-5.84,19.37-18.64,27.58-25.37,11.85,16.48,47.07,44.21,76.6,45.09,64.73,1.94,98.39-28.88,105.08-66.64,6.69-37.76-38.72-77.38-101.44-88.5Z"/><rect class="cls-3" y="214" width="500" height="1153"/></g></svg>