<?xml version="1.0" encoding="UTF-8"?><svg id="Layer_2" xmlns="http://www.w3.org/2000/svg" width="75.2mm" height="83.58mm" viewBox="0 0 213.17 236.92"><defs><style>.cls-1{fill:#98cd74;stroke:#5bba47;}.cls-1,.cls-2{stroke-miterlimit:10;}.cls-2{fill:#7a9eb1;stroke:#fff;stroke-width:3px;}.cls-3{fill:#764a2d;}.cls-3,.cls-4,.cls-5{stroke-width:0px;}.cls-4{fill:#5bba47;}.cls-5{fill:#4a4947;}</style></defs><g id="Layer_1-2"><path class="cls-3" d="m125.59,231.32c-3.57,1.45-7.14,2.9-10.72,4.35-4.25,1.16-10.1,2.01-16.39.22-3.34-.95-5.41-2.25-12.21-6.25-4.92-2.9-9.95-5.62-14.82-8.6-13.76-8.41-35.56-21.73-50.04-28.26-1.55-.7-5.64-2.5-9.85-6.31-1.08-.98-4.35-4.06-7.22-9.07-2.56-4.47-3.76-8.67-4.35-11.72.18-31.17.36-62.33.54-93.5.5-3.32,2.03-10.38,7.49-17.29,4.83-6.11,10.43-9.17,13.43-10.56,11.53-6.34,23.16-12.83,34.88-19.5,13.21-7.51,26.18-15.03,38.92-22.54,10.67-3.71,17.51-2.1,20.93-.81,1.83.69,3.59,1.63,7.11,3.52,5.39,2.9,9.67,5.58,12.56,7.48,10.88,6.04,21.93,12.36,33.13,18.95,11.28,6.64,22.24,13.29,32.88,19.91,1.45,1.08,3.46,2.79,5.35,5.28,6.08,8.06,5.72,17.61,5.61,21.78-.34,13.2.07,39.84.13,75.26.37,3.57.55,9.97-1.96,17.36-2.8,8.2-7.53,13.5-10.16,16.07-14.66,8.52-29.36,17.12-44.1,25.8-10.43,6.14-20.81,12.28-31.15,18.42Z"/><path class="cls-2" d="m106.01,219.92c-1.03,0-1.97-.12-2.88-.38-.91-.26-2.1-.94-6.83-3.72l-1.41-.83c-2.07-1.22-4.16-2.41-6.25-3.6-2.91-1.66-5.66-3.22-8.32-4.85-14.52-8.88-36.46-22.29-51.92-29.26l-.1-.05c-1.11-.5-3.18-1.43-5.33-3.37-.66-.6-2.36-2.27-3.87-4.91-.92-1.61-1.62-3.32-2.1-5.12l.52-90.14c.47-2.3,1.52-5.34,3.83-8.26,2.41-3.04,5.25-4.76,7.21-5.66l.55-.25.53-.29c11.7-6.43,23.5-13.03,35.09-19.62,12.5-7.11,25.12-14.41,37.54-21.73,1.98-.58,3.81-.89,5.34-.89,1.02,0,1.88.13,2.56.39.8.3,2.37,1.14,5.08,2.6,3.87,2.08,7.66,4.34,11.26,6.71l.53.35.56.31c10.95,6.08,21.97,12.38,32.77,18.74,10.64,6.26,21.33,12.73,31.79,19.24.57.47,1.07.98,1.48,1.53,2.4,3.18,2.28,8.01,2.2,10.89v.23c-.23,8.57-.14,22.56-.04,40.26.06,10.48.13,22.37.16,35.47v.86s.09.85.09.85c.24,2.38.24,6.06-1.14,10.13-1.2,3.51-3.04,6.19-4.68,8.06-14,8.14-28.15,16.43-42.11,24.64-9.92,5.84-20.04,11.82-30.1,17.8l-8.46,3.44c-1.25.29-2.44.43-3.53.43Z"/><circle class="cls-5" cx="106.59" cy="118.46" r="32.22"/><path class="cls-1" d="m64.81,149.15c1.04-5.44,2.63-9.85,4.01-13.03,2.18,3.17,5.81,7.68,11.42,11.96,5.93,4.53,11.33,6.72,12.58,7.21,12.47,4.91,16.49.3,25.38,4.3,7.75,3.49,14.65,11.47,15.57,20.61.1.98.85,9.85-5.62,16.87-9,9.75-25.95,9.48-36.98,5.43-19.08-7.01-26.5-27.22-27.36-37.95-.23-2.8-.3-8.61,1-15.4Z"/><path class="cls-4" d="m149.79,188.65c-25.24,4.75-52.22-4.31-69.42-23.28,17.52,17.92,44.45,25.97,68.83,20.34,0,0,.59,2.94.59,2.94h0Z"/><path class="cls-1" d="m157.44,136.47c-5.48,1.88-10.36,2.8-14,3.29,1.61-3.32,3.61-8.45,4.28-15.06.71-6.98-.39-12.38-.66-13.61-2.67-12.38-9.1-13.29-10.55-22.38-1.26-7.91,2-17.38,9.7-22.67.83-.57,8.38-5.58,18.38-3.9,13.89,2.32,23.27,15.98,25.89,26.79,4.53,18.7-9.44,34.66-18.61,40.69-2.39,1.57-7.58,4.51-14.43,6.86Z"/><path class="cls-4" d="m144.58,48.93c13.26,12.72,21.66,30.67,21.39,49.16-.08,6.08-.99,12.13-2.77,17.9,1.55-5.84,2.19-11.89,2.02-17.9-.36-11.95-4.3-23.74-10.99-33.61-3.31-4.93-7.27-9.42-11.69-13.36l2.04-2.2h0Z"/><path class="cls-1" d="m99.26,68.3c4.68,3.65,8.16,7.23,10.56,9.99-3.96.15-9.83.79-16.36,3.16-6.9,2.51-11.35,5.79-12.37,6.56-10.14,7.65-7.56,13.31-15.27,18.51-6.72,4.53-17.31,6.05-26.37,2.1-.97-.43-9.69-4.38-13.48-13.29-5.26-12.37,2.49-26.08,11.19-33,15.05-11.97,37.44-7.61,47.97-2.79,2.75,1.26,8.27,4.19,14.13,8.75Z"/><path class="cls-4" d="m24.46,117.47c5.07-17.7,18.52-32.39,35.34-39.63,5.51-2.46,11.33-4.18,17.24-5.19-5.87,1.26-11.58,3.21-16.93,5.87-10.64,5.19-19.94,13.37-26.03,23.53-3.04,5.05-5.31,10.53-6.73,16.21,0,0-2.89-.79-2.89-.79h0Z"/></g></svg>