<?xml version="1.0" encoding="UTF-8"?><svg id="Layer_2" xmlns="http://www.w3.org/2000/svg" width="57.92mm" height="70.62mm" viewBox="0 0 164.18 200.17"><defs><style>.cls-1{fill:#fbcbc7;}.cls-1,.cls-2,.cls-3,.cls-4,.cls-5,.cls-6,.cls-7,.cls-8,.cls-9,.cls-10,.cls-11,.cls-12,.cls-13,.cls-14,.cls-15,.cls-16,.cls-17,.cls-18,.cls-19{stroke:#231f20;stroke-miterlimit:10;}.cls-2{fill:#fdfeff;}.cls-3{fill:#96a1b6;}.cls-4{fill:#7d4f4b;}.cls-5{fill:#fafdff;}.cls-6{fill:#f1cb75;}.cls-7{fill:#e6e8ef;}.cls-8{fill:#dbe2ef;}.cls-9{fill:#d58172;}.cls-10{fill:#b1bfca;}.cls-11{fill:#b0bad1;}.cls-12{fill:#d8deec;}.cls-13{fill:#bcbcc3;}.cls-14{fill:#909fba;}.cls-15{fill:#875252;}.cls-16{fill:#b8c7d8;}.cls-17{fill:#968d97;}.cls-18{fill:#fac4c2;}.cls-19{fill:none;}.cls-20{fill:#f9cac0;}.cls-20,.cls-21,.cls-22{stroke-width:0px;}.cls-21{fill:#231f20;}.cls-22{fill:#fff;}</style></defs><g id="Layer_1-2"><path class="cls-18" d="m57.09,184.75c1.3,3.7,4.56,12.96,10.3,13.33,7.02.46,12-12.79,12.38-13.83,1.2-3.3,2.21-6.06,1.21-8.94-2.83-8.12-19.67-11.54-24.64-5.64-3.21,3.82-.78,10.73.75,15.07Z"/><path class="cls-1" d="m96.75,186c1.27,6.19,5.93,14.07,10.82,13.66,3.72-.31,6.03-5.31,8.46-10.59,2.84-6.16,2.48-10.52,2.34-11.79-.14-1.22-.38-2.22-.58-2.92-8.23-4.24-16.53-3.4-19.9.96-2.64,3.42-1.65,8.24-1.15,10.69Z"/><path class="cls-15" d="m57.25,121.86c-.93,1.85-2.66,3.14-4.34,4.35-2.29,1.66-4.69,3.35-7.47,3.85-1.36.25-2.76.19-4.14.14-1.15-.04-2.29-.09-3.44-.13-2.81-.11-5.63-.22-8.39-.78-1.4-.28-2.89-.75-3.71-1.92-.67-.95-.77-2.17-.84-3.32-1,.41-2.18-.28-2.69-1.24s-.53-2.09-.52-3.17c0-1.14.02-2.31.45-3.37.29-.72.75-1.36,1.26-1.94,3.04-3.48,7.63-5.15,12.1-6.29,3.07-.78,6.23-1.38,9.4-1.3,5.55.15,8.99,5.98,12.07,10.6.53.79,1.04,1.62,1.21,2.56s-.07,2-.82,2.58c-.1-.3-.02-.32-.12-.62Z"/><path class="cls-15" d="m130.67,106.05c1.22.33,2.17,1.29,3.02,2.23,2.75,3.04,5.38,6.8,4.88,10.87-6.52.19-12.96,2.73-19.4,1.73-.93-.14-1.9-.39-2.59-1.04-.93-.88-1.11-2.28-1.23-3.55-.79-8.34,7.86-12.26,15.32-10.24Z"/><path class="cls-11" d="m49.23,126.11c-3.91,5.84-3.85,12.39-3.73,14.59.32,5.53,2.35,6.33,1.86,11.49-.43,4.48-2.12,5.43-2.07,9.25.06,5.04,3.07,8.81,3.86,9.8,3.03,3.8,7.18,5.04,27.05,7.18,0,0,19.1,2.05,32.18-.94,0,0,6.93-1.59,6.96-3.98,0-.68-.59-1.1-.81-2.46-.24-1.51.44-2.71.36-3.15-2.12-12.12-.21-24.52.57-36.79.13-1.98.18-4.14-.97-5.76-.88-1.25-2.33-1.96-3.72-2.62-2.25-1.07-4.51-2.14-6.87-2.94-4.02-1.36-8.27-1.9-12.49-2.43-8.23-1.03-16.49-2.07-24.8-2.19-2.17-.03-3.89-.07-5.54.63-1.02.44-1.66,1.01-2.01,1.3-5.82,4.91-8.73,7.37-9.84,9.03Z"/><path class="cls-20" d="m51.99,86.49c.76,1.83,1.71,3.58,2.46,5.41.7,1.72,1.23,3.52,1.97,5.23.7,1.62,1.59,3.15,2.47,4.68.44.76.9,1.54,1.61,2.03.86.6,1.96.7,3.01.69,7.48-.02,14.37-4.38,21.84-4.76,1.08-.05,2.18-.02,3.24.22,1.1.25,2.13.72,3.16,1.17,4.02,1.77,8.23,3.33,12.62,3.58s9.03-.95,12.14-4.06c2.02-2.02,3.26-4.68,4.24-7.37,2.29-6.31,3.33-13.09,2.77-19.78-.11-1.27-.28-2.56-.91-3.67-.81-1.43-2.26-2.34-3.56-3.35-2.18-1.7-4.04-3.79-6.18-5.55s-4.69-3.22-7.46-3.3c-1.21-.04-2.42.19-3.63.26-1.54.09-3.08-.07-4.61-.23-4.65-.5-9.32-1.05-13.99-.76-3.78.24-7.53,1.02-11.32.98-2.22-.02-4.46-.32-6.66-.02-2.17.3-4.21,1.19-6.21,2.07-2.79,1.24-5.57,2.51-8.34,3.8-1.57.73-1.69.66-1.67,2.37.02,1.43.04,2.85.09,4.28.2,5.45.81,10.96,2.91,16.04Z"/><path class="cls-17" d="m100.51,165.71c0,2.38-1.95,4.33-4.33,4.33h-19.6c-2.38,0-4.33-1.95-4.33-4.33v-12.94c0-2.38,1.95-4.33,4.33-4.33h19.6"/><rect class="cls-10" x="78.9" y="153.84" width="14.13" height="10.79" rx="2.07" ry="2.07"/><path class="cls-6" d="m100.82,130.82c-2.69,1.98-6.23,2.26-9.57,2.46-4.25.25-8.55.48-12.74-.34-7.5-1.45-14.57-6.9-16.16-14.37-1.22,1.25-2.56,2.38-3.99,3.39-.44.31-.93.61-1.46.56-.48-.04-.89-.38-1.25-.7-2.67-2.45-4.64-5.54-6.46-8.67-2.25-3.86-4.37-8.04-4.35-12.51.01-3.68,1.48-7.32.96-10.96-1.08,1.6-3.01,2.58-4.94,2.54-1.93-.05-3.8-1.13-4.81-2.77,1.38-1.33,2.87-3,4.25-5.06,3.97-5.93,4.95-11.94,5.22-15.47.66.11,1.44.18,2.32.17,1.5-.03,2.76-.31,3.69-.6-.66,11.68,3.45,23.57,11.19,32.35,1.56-1.65,13.21-13.65,27.11-12.14,2.39.26,7.2.78,11.65,4.43,3.52,2.89,5.16,6.38,5.88,8.29,1.5.07,2.62-1.31,3.42-2.58,5.69-9.1,8.36-20.07,7.49-30.77,2.6,0,5.19,0,7.79,0-.26,7.42,4.82,13.9,10.18,19.03-1.75,1.28-3.53,2.58-5.55,3.36-2.02.78-4.36,1.01-6.34.13.62,3.19,1.13,7.2,1.07,11.85-.05,4.57-.64,8.51-1.32,11.65"/><path class="cls-19" d="m77.44,100.73c1.27,2.55,3.59,4.57,6.3,5.46,2.71.9,5.77.67,8.31-.62,1.39-.7,2.72-1.9,2.8-3.45"/><circle class="cls-21" cx="68.07" cy="80.69" r="7.44"/><circle class="cls-21" cx="101.11" cy="79.79" r="7.44"/><circle class="cls-22" cx="65.52" cy="79.7" r="3.43"/><circle class="cls-22" cx="98.72" cy="78.66" r="3.43"/><circle class="cls-22" cx="70.38" cy="83.52" r="1.42"/><circle class="cls-22" cx="104.87" cy="82.1" r="1.41"/><path class="cls-19" d="m85.97,133.81c-.07,4.88-.13,9.75-.2,14.63,0-.32-.01-.63-.02-.95"/><circle class="cls-16" cx="128.3" cy="149.09" r="35.37"/><path class="cls-9" d="m127.69,171.31c-12.25,0-22.22-9.97-22.22-22.22s9.97-22.22,22.22-22.22,22.22,9.97,22.22,22.22-9.97,22.22-22.22,22.22Z"/><path class="cls-13" d="m127.69,154.88c-3.19,0-5.79-2.6-5.79-5.79s2.6-5.79,5.79-5.79,5.79,2.6,5.79,5.79-2.6,5.79-5.79,5.79Z"/><path class="cls-14" d="m69.15,17.42c15.66-6.02,34.61-.84,46,11.48,3.1,3.35,5.71,7.21,7.19,11.52,2.13,6.19,1.82,12.93,1.38,19.46-24.27,5.12-49.59-1.61-74.22,1.33-1.41.17-2.99.33-4.11-.54-1.3-1-.36-9.46-.2-11.39.39-4.62,1.74-9.14,3.82-13.28,4.18-8.32,11.39-15.23,20.13-18.58Z"/><path class="cls-12" d="m126.96,55.48c-.38,5.26-.75,10.53-1.13,15.79-2.1-.82-5.1-1.88-8.78-2.85-4.17-1.1-10.32-2.38-21.39-2.81-12.23-.47-21.62.45-28.64,1.17-5.85.59-13.43,1.56-22.26,3.22-.32-4-.63-8-.95-12.01,13.1-4.61,24.59-6.47,33-7.25,10.45-.97,18.89-.54,23.77-.13,10.57.88,19.51,2.88,26.38,4.87Z"/><path class="cls-8" d="m97.33,52.77c-1.31.85-3.2,1.88-5.63,2.65-1.55.49-3.91,1.06-6.84,1.08-3.57.03-6.22-.77-7.83-1.27-2.32-.72-4.16-1.62-5.43-2.32-.45-5.92-.59-12.79-.06-20.39.49-7.02,1.46-13.32,2.59-18.79,1.88-.8,5.29-1.97,9.68-1.92,4.37.05,7.74,1.28,9.61,2.12.52,2,1.16,4.7,1.79,7.92,1.74,9,2.12,15.96,2.22,18.27.15,3.39.2,7.68-.11,12.66Z"/><path class="cls-5" d="m47.45,47.56c-1.05.27-2.2.42-3.19-.02-.74-.33-1.3-.94-1.83-1.55-3.56-4.08-6.61-8.62-9.05-13.46-.86-1.71-1.65-3.48-2.06-5.35-.82-3.78.01-7.76,1.59-11.28,1.58-3.52,3.89-6.66,6.18-9.78.7-.95,1.43-1.94,2.47-2.5s2.47-.6,3.29.26c.43.45.63,1.08.76,1.69.74,3.44-.27,7.11.67,10.5.56,2,1.75,3.76,3.01,5.42,2.08,2.76,4.37,5.36,6.7,7.92s2.69,4,1.83,7.38c-1.28,5.04-5.3,9.44-10.38,10.77Z"/><path class="cls-2" d="m113.28,38.34c1.03,2.95,2.91,5.71,5.64,7.24,2.73,1.53,6.36,1.61,8.86-.27,1.27-.95,2.16-2.31,2.95-3.68,3.2-5.57,5.09-11.9,5.45-18.31.11-1.94.08-3.91-.45-5.77-.36-1.27-.95-2.46-1.53-3.64-2.21-4.47-4.49-9.04-8.08-12.49-.45-.43-.97-.86-1.59-.91-1.5-.12-2.15,1.85-2.2,3.35-.15,4.74.69,9.64-.88,14.12-1.4,4-4.53,7.2-7.47,10.12-2.92,2.9-2.02,6.47-.69,10.25Z"/><path class="cls-4" d="m44.05,150.61c0,1.27.22,2.27.3,2.57.95,3.48,9.16,6.68,18.16,8.11,2.23.35,5.55.76,9.64.82.29-2.82.34-5.67.14-8.5-6.72.76-11.49-.24-14.24-1.08-4.59-1.4-6.89-2.1-9.11-3.63-1.57-1.08-3.08-2.46-4.02-1.94-.87.48-.87,2.38-.86,3.64Z"/><path class="cls-7" d="m5.08,73.29c-.93-5.83-1.68-8.15-3.92-21.46,0,0-1.82-10.79.6-19.64.52-1.92,1.5-3.46,2.18-4.74.57-1.07,1.24-2.23,2.38-2.62,1.16-.39,2.42.16,3.46.79,5.54,3.37,8.96,9.39,11.01,15.54,2.1,6.33,2.99,10.38,4.8,18.84,2.83,13.29,2.56,10.52,4.66,20.71,1.59,7.69,3.43,17.43,5.18,28.86-5.38-.1-10.77.76-15.85,2.52-1.42.49-2.89,1.07-4.37.83,0,0-.94-.22-1.79-.85-3.63-2.67-6.81-29.22-8.34-38.8Z"/><path class="cls-3" d="m21.79,134.58c2.93.63,5.97-.01,8.9-.66,1.58-.35,3.16-.69,4.74-1.04-.94-9.02-2.52-15.7-3.7-18.25-.72-1.54-1.62-3.2-1.62-3.2-1.11-2.06-2.04-3.49-2.14-3.66-2.92-4.65-6.76-39.76-13.3-61.46-1.48-4.92-5.01-15.5-6.46-15.19-.48.1-.59,1.38-.64,2.11-1.06,14.48.11,21.21.11,21.21,2.15,12.36,3.13,16.02,3.13,16.02,2.39,8.99,5.64,22.3,9.63,42,0,0-1.82,1.75-2.37,2.45-1.53,1.96-.35,5.06,1.4,11.1.57,1.94,1.4,4.89,2.32,8.59Z"/><path class="cls-7" d="m6.83,116.02c-.06,1.7.79,3.27,1.62,4.71,4.85-.28,9.61-1.49,14.34-2.7,6.18-1.58,12.36-3.16,18.55-4.74.43-.11.9-.24,1.19-.61.41-.51.37-1.19.34-1.58-.28-3.13-.43-4.7-1.42-5.44-1.31-.97-3.06-.03-7.36,1.33-1.49.47-3.81,1.05-8.46,2.21-7.45,1.85-11.17,2.78-12.21,2.89-1.56.16-5.15.45-6.11,2.28-.4.77-.48,1.64-.48,1.64Z"/><path class="cls-7" d="m19.17,136.87c-.43,1.45.52,3.27,1.72,4.18.83.62,2.25,1.17,11.26-1.66,5.91-1.85,7.22-2.69,7.72-4.11.41-1.17.32-2.89-.66-3.9-.62-.65-1.51-.91-2.98-.97-2.69-.11-4.02.61-8.08,1.8-2.82.82-4.66,1.2-7.07,2.67-.93.57-1.64,1.11-1.9,1.99Z"/></g></svg>