<?xml version="1.0" encoding="UTF-8"?><svg id="Layer_1" xmlns="http://www.w3.org/2000/svg" width="1920" height="577" xmlns:xlink="http://www.w3.org/1999/xlink" viewBox="0 0 1920 577"><defs><style>.cls-1{clip-path:url(#clippath);}.cls-2{fill:none;}.cls-2,.cls-3{stroke-width:0px;}.cls-4{clip-path:url(#clippath-1);}.cls-5{clip-path:url(#clippath-4);}.cls-6{clip-path:url(#clippath-3);}.cls-7{clip-path:url(#clippath-2);}.cls-3{fill:#6f9d6b;}</style><clipPath id="clippath"><rect class="cls-2" width="1920" height="413"/></clipPath><clipPath id="clippath-1"><rect class="cls-2" x="-54" y="53.21" width="1678" height="612.88"/></clipPath><clipPath id="clippath-2"><rect class="cls-2" x="-93" y="54.12" width="1678" height="1268.54"/></clipPath><clipPath id="clippath-3"><rect class="cls-2" x="607.93" y="103.32" width="1406.07" height="513.56" transform="translate(2621.93 720.2) rotate(180)"/></clipPath><clipPath id="clippath-4"><rect class="cls-2" x="607.93" y="103.32" width="1406.07" height="1062.96" transform="translate(2621.93 1269.61) rotate(180)"/></clipPath></defs><g class="cls-1"><g class="cls-4"><g class="cls-7"><path class="cls-3" d="m-130.33,860.01c13.11-2.32,25.68-4.19,37.74-5.64v-373.05c-9.02-.37-18.11-.96-27.28-1.79-182.72-16.57-322.68-120.08-312.6-231.2,10.08-111.12,139.53-196.71,334.49-193.8,123.16,1.84,232.96,65.51,288.78,140.78,86.86-64.92,223.68-109.16,391.18-88.34,140.18,17.42,224.25,60.15,275,115.55,65.46-57.93,170.24-77.03,258.31-64.82,71.99,9.99,119.85,41.89,148.58,85.11,73.18-75.22,275.88-92.93,381.41-29.85,107.41,64.21,111.53,194.37,68.41,282.78-22.73,46.59-68.49,76.19-123.15,85.74v74.92h-5.42v231.26c135.56-15.42,254.44,47.85,267.42,143.6,13.23,97.59-43.13,187.47-180.12,216.76-113.79,24.33-277.46-9.18-354.91-72.99-61.63,51.38-153.57,92.56-273.79,113.65-153.41,26.91-342.6-5.85-457.24-72.67-82.09,72.33-244.46,100.7-371.86,45.46-36.03-15.63-66.97-34.51-92.79-55.66-37.24,51.79-98.43,93.39-189.83,109.58-197.08,34.92-360.08-58.64-381.11-177.31-21.03-118.67,121.69-243.18,318.77-278.1Z"/></g></g><g class="cls-6"><g class="cls-5"><path class="cls-3" d="m2045.28,778.61c-10.99-1.95-21.52-3.51-31.63-4.73v-312.6c7.56-.31,15.18-.81,22.86-1.5,153.11-13.88,270.39-100.62,261.94-193.73-8.44-93.11-116.92-164.83-280.29-162.39-103.2,1.54-195.21,54.89-241.98,117.96-72.78-54.4-187.43-91.47-327.78-74.02-117.46,14.6-187.9,50.41-230.43,96.82-54.85-48.54-142.65-64.55-216.45-54.31-60.33,8.37-100.43,35.11-124.5,71.32-61.32-63.03-231.17-77.87-319.6-25.01-90.01,53.8-93.46,162.87-57.32,236.96,19.04,39.04,57.39,63.84,103.19,71.85v62.78h4.54v193.79c-113.6-12.92-213.21,40.1-224.09,120.33-11.09,81.77,36.14,157.09,150.93,181.64,95.35,20.39,232.49-7.7,297.4-61.16,51.64,43.05,128.68,77.56,229.42,95.23,128.55,22.55,287.08-4.9,383.14-60.89,68.78,60.61,204.84,84.38,311.59,38.09,30.19-13.09,56.12-28.92,77.75-46.64,31.21,43.4,82.47,78.25,159.06,91.83,165.14,29.26,301.73-49.14,319.35-148.57,17.62-99.44-101.97-203.77-267.11-233.03Z"/></g></g></g><rect class="cls-3" x="0" y="376" width="1920" height="201"/></svg>