<?xml version="1.0" encoding="UTF-8"?><svg id="Layer_1" xmlns="http://www.w3.org/2000/svg" width="1920" height="2157" xmlns:xlink="http://www.w3.org/1999/xlink" viewBox="0 0 1920 2157"><defs><style>.cls-1{clip-path:url(#clippath);}.cls-2{fill:none;}.cls-2,.cls-3{stroke-width:0px;}.cls-3{fill:#6f9d6b;}</style><clipPath id="clippath"><rect class="cls-2" width="1920" height="2139"/></clipPath></defs><g class="cls-1"><path class="cls-3" d="m1965.12,1502.58c-15.02-2.66-29.41-4.8-43.23-6.46v-9.73c212.87,26.64,385.14-77.17,408.21-207.36,17.15-96.78-60.79-196.95-188.59-261.06,108.67-50.18,177.37-131.16,169.67-216.02-11.54-127.28-159.82-225.31-383.13-221.98-2.11.03-4.21.08-6.31.14v-53.39c10.33-.42,20.75-1.1,31.24-2.05,209.29-18.98,369.6-137.54,358.06-264.82-11.54-127.28-159.82-225.31-383.13-221.98-141.07,2.11-266.84,75.03-330.78,161.25-99.49-74.36-256.21-125.03-448.06-101.19-160.56,19.96-256.85,68.9-314.98,132.35-74.98-66.35-148.83-111.76-283.1-103.28-95,6-150.04,77.03-182.95,126.53-83.82-86.16-316-106.44-436.87-34.19-123.03,73.54-127.75,222.64-78.35,323.9,26.03,53.37,78.45,87.27,141.05,98.21v85.82H.08v5.57c-25.22,7.03-48.55,16.51-68.77,28.59-95.37,57.01-119.64,159.41-102.72,249.75-73.72,27.67-125.94,79.92-134.82,145.46-15.15,111.78,49.4,214.73,206.31,248.28,30.87,6.6,64.94,9.48,100.14,9.07v120.26c-155.28-17.66-291.44,54.81-306.31,164.48-15.15,111.78,49.4,214.73,206.31,248.28,130.34,27.87,312.77,50.97,406.52-83.6,70.59,58.85,117.25,122.57,252.25,157.57,216.81,56.21,444,6,585.08-110.63,145.92,141.63,323.9,137.19,432.92,79.63,39.78-21.01,69.72-67.09,99.29-91.31,42.66,59.32,169.43,159.12,275.71,162.31,233,7,354.16-103.96,378.25-239.88,24.09-135.92-139.39-278.54-365.12-318.54Z"/></g></svg>