<?xml version="1.0" encoding="UTF-8"?><svg id="Layer_1" xmlns="http://www.w3.org/2000/svg" width="1920" height="702" xmlns:xlink="http://www.w3.org/1999/xlink" viewBox="0 0 1920 702"><defs><style>.cls-1{clip-path:url(#clippath);}.cls-2{fill:none;}.cls-2,.cls-3{stroke-width:0px;}.cls-4{clip-path:url(#clippath-1);}.cls-3{fill:#6f9d6b;}</style><clipPath id="clippath"><rect class="cls-2" x="-2" width="1922" height="702"/></clipPath><clipPath id="clippath-1"><rect class="cls-2" x="-2" width="1922" height="1453"/></clipPath></defs><g class="cls-1"><g class="cls-4"><path class="cls-3" d="m-44.75,923.08c15.02-2.66,29.41-4.8,43.23-6.46v-427.3c-10.33-.42-20.75-1.1-31.24-2.05-209.29-18.98-369.6-137.54-358.06-264.82C-379.28,95.16-231-2.87-7.69.47c141.07,2.11,266.84,75.03,330.78,161.25,99.49-74.36,256.21-125.03,448.06-101.19,160.56,19.96,256.85,68.9,314.98,132.35,74.98-66.35,195-88.23,295.87-74.24,82.46,11.44,137.28,47.99,170.18,97.49,83.82-86.15,316-106.44,436.87-34.19,123.03,73.54,127.75,222.64,78.35,323.9-26.03,53.37-78.45,87.27-141.05,98.21v85.82h-6.21v264.89c155.28-17.66,291.44,54.81,306.31,164.48,15.15,111.78-49.4,214.73-206.31,248.28-130.34,27.87-317.8-10.52-406.52-83.6-70.59,58.85-175.9,106.02-313.61,130.17-175.71,30.83-392.42-6.7-523.73-83.23-94.02,82.85-280,115.34-425.93,52.07-41.27-17.9-76.71-39.53-106.28-63.75-42.66,59.32-112.74,106.97-217.43,125.52-225.74,40-412.44-67.17-436.53-203.09-24.09-135.92,139.39-278.54,365.12-318.54Z"/></g></g></svg>